<svg width="24" height="24" viewBox="0 0 24 24" fill="none" xmlns="http://www.w3.org/2000/svg">
<path d="M22.3199 10.8452L21.6984 8.35915C21.8683 8.32306 21.9958 8.1723 21.9958 7.9917V7.59087C21.9958 6.72059 21.2878 6.01259 20.4175 6.01259H17.5867V5.1858C17.5867 4.75755 17.2383 4.40918 16.81 4.40918H2.37994C1.95169 4.40918 1.60331 4.75755 1.60331 5.1858V12C1.60331 12.0997 1.64291 12.1953 1.71338 12.2658C1.78386 12.3362 1.87944 12.3758 1.97911 12.3758C2.07878 12.3758 2.17436 12.3362 2.24484 12.2658C2.31531 12.1953 2.35491 12.0997 2.35491 12V5.1858C2.35491 5.17198 2.36611 5.16077 2.37994 5.16077H16.81C16.8238 5.16077 16.835 5.17198 16.835 5.1858V12.0001C16.835 12.0998 16.8746 12.1954 16.9451 12.2658C17.0156 12.3363 17.1111 12.3759 17.2108 12.3759C17.3105 12.3759 17.4061 12.3363 17.4765 12.2658C17.547 12.1954 17.5866 12.0998 17.5866 12.0001V11.5741H22.0195L22.0205 11.5742L22.0215 11.5742C22.567 11.5745 23.0302 11.9326 23.1893 12.4259H22.0208C21.9211 12.4259 21.8255 12.4655 21.7551 12.536C21.6846 12.6065 21.645 12.7021 21.645 12.8017V13.6034C21.645 14.2526 22.1732 14.7808 22.8225 14.7808H23.2484V16.4343H22.2658C21.943 15.5022 21.057 14.8309 20.0166 14.8309C18.9762 14.8309 18.0902 15.5022 17.7675 16.4343H17.5865V13.6033C17.5865 13.5037 17.5469 13.4081 17.4764 13.3376C17.406 13.2671 17.3104 13.2275 17.2107 13.2275C17.1111 13.2275 17.0155 13.2671 16.945 13.3376C16.8745 13.4081 16.8349 13.5037 16.8349 13.6033V16.4342H9.0383C8.71552 15.5021 7.82953 14.8308 6.78914 14.8308C5.74875 14.8308 4.86272 15.5021 4.53998 16.4342H2.37994C2.3733 16.4342 2.36693 16.4315 2.36224 16.4268C2.35754 16.4221 2.35491 16.4158 2.35491 16.4091V15.5824H3.9833C4.08296 15.5824 4.17855 15.5428 4.24903 15.4723C4.3195 15.4019 4.35909 15.3063 4.35909 15.2066C4.35909 15.1069 4.3195 15.0113 4.24903 14.9409C4.17855 14.8704 4.08296 14.8308 3.9833 14.8308H0.375797C0.276129 14.8308 0.180544 14.8704 0.110068 14.9409C0.0395928 15.0113 0 15.1069 0 15.2066C0 15.3063 0.0395928 15.4019 0.110068 15.4723C0.180544 15.5428 0.276129 15.5824 0.375797 15.5824H1.60336V16.4091C1.60336 16.8374 1.95173 17.1858 2.37998 17.1858H4.40986C4.40977 17.1941 4.4092 17.2024 4.4092 17.2108C4.4092 18.5231 5.47688 19.5907 6.78914 19.5907C8.10141 19.5907 9.16908 18.5231 9.16908 17.2108C9.16908 17.2024 9.16852 17.1941 9.16842 17.1858H17.6373C17.6372 17.1941 17.6367 17.2024 17.6367 17.2108C17.6367 18.5231 18.7043 19.5907 20.0166 19.5907C21.3289 19.5907 22.3965 18.5231 22.3965 17.2108C22.3965 17.2024 22.396 17.1941 22.3959 17.1858H23.6242C23.7238 17.1858 23.8194 17.1462 23.8899 17.0757C23.9604 17.0052 24 16.9096 24 16.81V12.8016C24 11.812 23.2698 10.9898 22.3199 10.8452ZM17.5867 6.76413H20.4175C20.8734 6.76413 21.2443 7.13501 21.2443 7.59087V7.6159H17.5867V6.76413ZM17.5867 10.8226V8.36745H20.9258L21.5396 10.8226H17.5867ZM6.78914 18.8393C5.89125 18.8393 5.16075 18.1088 5.16075 17.2109C5.16075 16.3129 5.89125 15.5825 6.78914 15.5825C7.68703 15.5825 8.41753 16.3129 8.41753 17.2109C8.41753 18.1088 7.68703 18.8393 6.78914 18.8393ZM20.0167 18.8393C19.1188 18.8393 18.3883 18.1088 18.3883 17.2109C18.3883 16.3129 19.1188 15.5825 20.0167 15.5825C20.9146 15.5825 21.6451 16.3129 21.6451 17.2109C21.6451 18.1088 20.9146 18.8393 20.0167 18.8393ZM23.2485 14.0292H22.8225C22.5877 14.0292 22.3966 13.8382 22.3966 13.6033V13.1774H23.2484V14.0292H23.2485Z" fill="#0C2454"/>
<path d="M6.78912 16.4341C6.36087 16.4341 6.0125 16.7825 6.0125 17.2108C6.0125 17.639 6.36087 17.9874 6.78912 17.9874C7.21737 17.9874 7.56574 17.639 7.56574 17.2108C7.56574 16.7825 7.21737 16.4341 6.78912 16.4341ZM20.0167 16.4341C19.5884 16.4341 19.2401 16.7825 19.2401 17.2108C19.2401 17.639 19.5884 17.9874 20.0167 17.9874C20.4449 17.9874 20.7933 17.639 20.7933 17.2108C20.7933 16.7825 20.4449 16.4341 20.0167 16.4341ZM15.6075 14.8308H9.99579C9.89612 14.8308 9.80054 14.8704 9.73006 14.9409C9.65959 15.0114 9.62 15.107 9.62 15.2066C9.62 15.3063 9.65959 15.4019 9.73006 15.4724C9.80054 15.5428 9.89612 15.5824 9.99579 15.5824H15.6075C15.7071 15.5824 15.8027 15.5428 15.8732 15.4724C15.9437 15.4019 15.9833 15.3063 15.9833 15.2066C15.9833 15.107 15.9437 15.0114 15.8732 14.9409C15.8027 14.8704 15.7071 14.8308 15.6075 14.8308ZM5.98746 13.2275H1.17743C1.07777 13.2275 0.98218 13.2671 0.911704 13.3375C0.841229 13.408 0.801636 13.5036 0.801636 13.6033C0.801636 13.7029 0.841229 13.7985 0.911704 13.869C0.98218 13.9395 1.07777 13.9791 1.17743 13.9791H5.98746C6.08713 13.9791 6.18272 13.9395 6.25319 13.869C6.32367 13.7985 6.36326 13.7029 6.36326 13.6033C6.36326 13.5036 6.32367 13.408 6.25319 13.3375C6.18272 13.2671 6.08713 13.2275 5.98746 13.2275ZM13.0674 8.12663C12.9969 8.05617 12.9013 8.01659 12.8017 8.0166C12.702 8.01661 12.6064 8.0562 12.5359 8.12668L9.19414 11.4684L7.45568 9.72999C7.42079 9.69509 7.37937 9.66741 7.33377 9.64852C7.28818 9.62964 7.23932 9.61992 7.18997 9.61992C7.14062 9.61992 7.09176 9.62964 7.04617 9.64852C7.00058 9.66741 6.95915 9.69509 6.92426 9.72999C6.88936 9.76488 6.86168 9.8063 6.8428 9.8519C6.82391 9.89749 6.81419 9.94635 6.81419 9.9957C6.81419 10.045 6.82391 10.0939 6.8428 10.1395C6.86168 10.1851 6.88936 10.2265 6.92426 10.2614L8.92845 12.2656C9.00181 12.339 9.09799 12.3757 9.19414 12.3757C9.29028 12.3757 9.38651 12.339 9.45982 12.2656L13.0673 8.6581C13.1378 8.58762 13.1774 8.49204 13.1774 8.39237C13.1774 8.29271 13.1378 8.19712 13.0674 8.12663Z" fill="#0C2454"/>
</svg>
