<svg width="24" height="24" viewBox="0 0 24 24" fill="none" xmlns="http://www.w3.org/2000/svg">
<path d="M7.75202 12.5281H3.64802C3.45602 12.5281 3.28802 12.6961 3.28802 12.8881V15.3361C3.28802 15.5281 3.45602 15.6961 3.64802 15.6961H7.75202C7.94402 15.6961 8.11202 15.5281 8.11202 15.3361V12.8881C8.11202 12.6721 7.94402 12.5281 7.75202 12.5281ZM7.39202 14.9761H4.00803V13.2481H7.39202V14.9761Z" fill="#0C2454"/>
<path d="M22.68 13.4881C22.608 13.4161 22.512 13.3921 22.392 13.3921C22.176 13.4161 21.96 13.4161 21.768 13.3921V5.23209C21.768 4.46409 21.144 3.84009 20.376 3.84009H2.61601C1.82401 3.84009 1.20001 4.46409 1.20001 5.23209V16.3681C1.20001 17.1361 1.82401 17.7601 2.59201 17.7601H16.56C17.208 18.9361 18.336 19.8961 19.344 20.1361H19.536C21 19.8001 22.8 17.8561 22.8 16.0081V13.7521C22.8 13.6561 22.752 13.5601 22.68 13.4881ZM1.92001 7.20009H21.048V8.85609H1.92001V7.20009ZM2.59201 4.56009H20.352C20.736 4.56009 21.024 4.87209 21.024 5.23209V6.48009H1.92001V5.23209C1.92001 4.84809 2.23201 4.56009 2.59201 4.56009ZM2.59201 17.0641C2.20801 17.0641 1.92001 16.7521 1.92001 16.3921V9.55209H21.048V13.2481C20.568 13.0801 20.136 12.7921 19.68 12.3601C19.536 12.2161 19.32 12.2161 19.176 12.3601C18.336 13.2001 17.496 13.5121 16.464 13.3921C16.368 13.3921 16.272 13.4161 16.176 13.4881C16.104 13.5601 16.056 13.6561 16.056 13.7521V16.0081C16.056 16.3441 16.128 16.7041 16.224 17.0401H2.59201V17.0641ZM22.08 16.0081C22.08 17.5441 20.496 19.1041 19.44 19.4161C18.36 19.0801 16.8 17.5441 16.8 16.0081V14.1601C17.784 14.1841 18.624 13.8481 19.44 13.1281C20.256 13.8481 21.12 14.1841 22.08 14.1601V16.0081Z" fill="#0C2454"/>
<path d="M11.496 14.7361H9.936C9.744 14.7361 9.576 14.9041 9.576 15.0961C9.576 15.2881 9.744 15.4561 9.936 15.4561H11.496C11.688 15.4561 11.856 15.2881 11.856 15.0961C11.856 14.9041 11.712 14.7361 11.496 14.7361ZM14.472 12.7441H9.912C9.72 12.7441 9.552 12.9121 9.552 13.1041C9.552 13.2961 9.72 13.4641 9.912 13.4641H14.472C14.664 13.4641 14.832 13.2961 14.832 13.1041C14.832 12.9121 14.688 12.7441 14.472 12.7441ZM18.816 16.1041C18.672 15.9841 18.432 15.9841 18.312 16.1521C18.192 16.2961 18.192 16.5361 18.36 16.6561L18.96 17.1601C19.032 17.2081 19.104 17.2561 19.2 17.2561H19.224C19.32 17.2561 19.416 17.2081 19.464 17.1361L20.568 15.8161C20.688 15.6721 20.664 15.4321 20.52 15.3121C20.376 15.1921 20.136 15.2161 20.016 15.3601L19.128 16.4161L18.816 16.1041Z" fill="#0C2454"/>
</svg>
