<svg width="21" height="20" viewBox="0 0 21 20" fill="none" xmlns="http://www.w3.org/2000/svg">
<path d="M5.68677 18.3301C5.68622 18.3288 5.68479 18.3272 5.68286 18.3252C5.68102 18.3234 5.67926 18.3219 5.67798 18.3213C5.67719 18.321 5.67518 18.3203 5.67212 18.3203C5.66976 18.3203 5.66881 18.3211 5.66821 18.3213C5.6672 18.3217 5.66515 18.3225 5.66333 18.3242C5.6614 18.3261 5.66 18.3287 5.65942 18.3301C5.65909 18.3309 5.65848 18.3323 5.65845 18.335C5.65845 18.3383 5.65916 18.3402 5.65942 18.3408C5.65994 18.3419 5.66069 18.344 5.66235 18.3457C5.6641 18.3474 5.66614 18.3482 5.66724 18.3486C5.66788 18.3489 5.66916 18.3496 5.67212 18.3496C5.67523 18.3496 5.67709 18.349 5.67798 18.3486C5.67929 18.3481 5.68101 18.3465 5.68286 18.3447C5.68479 18.3428 5.68632 18.3409 5.68677 18.3398C5.68701 18.3393 5.68774 18.3378 5.68774 18.335C5.68771 18.3322 5.68709 18.3308 5.68677 18.3301ZM7.18774 18.335C7.18774 19.1725 6.50705 19.8496 5.67212 19.8496C4.83606 19.8494 4.15845 19.1711 4.15845 18.335C4.15864 17.5003 4.8349 16.8205 5.67212 16.8203C6.50822 16.8203 7.18755 17.4989 7.18774 18.335Z" fill="#0C2454"/>
<path d="M16.9391 18.3301C16.9385 18.3288 16.9371 18.3272 16.9352 18.3252C16.9333 18.3233 16.9316 18.3219 16.9303 18.3213C16.9295 18.321 16.9275 18.3203 16.9244 18.3203C16.9216 18.3203 16.9203 18.321 16.9196 18.3213C16.9183 18.3219 16.9166 18.3232 16.9147 18.3252C16.9127 18.3272 16.9113 18.3288 16.9108 18.3301C16.9104 18.3308 16.9098 18.3322 16.9098 18.335C16.9098 18.338 16.9105 18.3393 16.9108 18.3398C16.9112 18.3409 16.9118 18.3428 16.9137 18.3447C16.9156 18.3467 16.9182 18.3481 16.9196 18.3486C16.9204 18.349 16.9218 18.3496 16.9244 18.3496C16.9275 18.3496 16.9294 18.349 16.9303 18.3486C16.9317 18.3481 16.9342 18.3467 16.9362 18.3447C16.9379 18.3429 16.9387 18.3409 16.9391 18.3398C16.9393 18.3393 16.9401 18.3378 16.9401 18.335C16.94 18.3322 16.9394 18.3308 16.9391 18.3301ZM18.4401 18.335C18.4401 19.1725 17.7594 19.8496 16.9244 19.8496C16.0897 19.8494 15.4098 19.1723 15.4098 18.335C15.41 17.499 16.0885 16.8205 16.9244 16.8203C17.7605 16.8203 18.4399 17.4989 18.4401 18.335Z" fill="#0C2454"/>
<path d="M1.05174 0.251855L1.12792 0.260644L3.20799 0.620996L3.33006 0.652246C3.60437 0.749049 3.80201 0.999351 3.82713 1.29678L4.06249 4.09853H18.1592C19.433 4.09864 20.4108 5.22806 20.2285 6.48916L19.2793 13.0478C19.0968 14.3039 18.0211 15.2362 16.7519 15.2362H5.83983C4.59506 15.2362 3.54546 14.3421 3.32811 13.1396L3.29588 12.8954L2.38085 1.9999L0.872057 1.73916L0.796861 1.72158C0.430999 1.61908 0.194538 1.25446 0.260729 0.871972C0.326959 0.489307 0.672508 0.225156 1.05174 0.251855ZM4.79003 12.7704L4.8037 12.871C4.89316 13.3671 5.32582 13.7362 5.83983 13.7362H16.7519C17.2748 13.7362 17.7194 13.3518 17.7949 12.8319L18.7441 6.27432C18.7955 5.9177 18.519 5.59864 18.1592 5.59854H4.18846L4.79003 12.7704Z" fill="#0C2454"/>
<path d="M15.1489 7.79492L15.2251 7.79883C15.6033 7.8372 15.8989 8.15657 15.8989 8.54492C15.8989 8.93327 15.6033 9.25264 15.2251 9.29102L15.1489 9.29492H12.3755C11.9613 9.29492 11.6255 8.95914 11.6255 8.54492C11.6255 8.13071 11.9613 7.79492 12.3755 7.79492H15.1489Z" fill="#0C2454"/>
</svg>
