<svg width="24" height="24" viewBox="0 0 24 24" fill="none" xmlns="http://www.w3.org/2000/svg">
<g clip-path="url(#clip0_1881_5167)">
<path d="M23.3233 11.9483C23.8781 10.8507 23.6483 9.54783 22.7516 8.70614L21.45 7.48448C21.1498 7.20276 20.9662 6.88481 20.8723 6.48384L20.4651 4.7459C20.1846 3.54844 19.1711 2.69798 17.9431 2.62969L16.1608 2.53055C15.7497 2.50767 15.4047 2.38209 15.0751 2.13539L13.646 1.0657C12.6616 0.328732 11.3384 0.328639 10.3538 1.0657L8.9248 2.13534C8.59518 2.38209 8.25013 2.50767 7.83904 2.53055L6.0568 2.62969C4.82882 2.69798 3.81528 3.54844 3.53478 4.7459L3.12758 6.48389C3.03369 6.88481 2.85013 7.20276 2.54994 7.48453L1.24832 8.70614C0.35155 9.54778 0.121816 10.8507 0.676629 11.9483L1.48194 13.5414C1.66771 13.9089 1.73146 14.2704 1.68257 14.6793L1.47069 16.4517C1.32477 17.6729 1.98627 18.8186 3.1168 19.3028L4.75771 20.0056C5.13618 20.1677 5.41743 20.4037 5.64285 20.7482L6.61986 22.2422C7.29294 23.2715 8.53616 23.724 9.71352 23.3682L11.4222 22.8518C11.8164 22.7326 12.1835 22.7327 12.5776 22.8518L14.2863 23.3682C14.5477 23.4475 14.8193 23.488 15.0925 23.4882C15.9997 23.4882 16.86 23.0373 17.3799 22.2422L18.357 20.7482C18.5824 20.4037 18.8636 20.1676 19.2421 20.0055L20.883 19.3028C22.0135 18.8186 22.6751 17.6728 22.5291 16.4517L22.3172 14.6792C22.2683 14.2704 22.3321 13.9088 22.5178 13.5413L23.3233 11.9483ZM21.8486 13.2031C21.5966 13.7017 21.5063 14.2137 21.5726 14.7683L21.7845 16.5407C21.8923 17.4424 21.4225 18.2559 20.5878 18.6135L18.9469 19.3162C18.4334 19.5361 18.0351 19.8703 17.7294 20.3378L16.7523 21.8317C16.2553 22.5917 15.3725 22.913 14.5033 22.6503L12.7946 22.1339C12.5272 22.0531 12.2637 22.0127 11.9999 22.0127C11.7363 22.0127 11.4726 22.0531 11.2053 22.1339L9.49658 22.6503C8.62743 22.9129 7.74458 22.5917 7.24757 21.8317L6.27055 20.3378C5.96474 19.8703 5.56644 19.5361 5.05297 19.3162L3.41207 18.6135C2.57732 18.256 2.10763 17.4424 2.21539 16.5407L2.42727 14.7683C2.4936 14.2136 2.40332 13.7017 2.15127 13.203L1.34596 11.61C0.936363 10.7996 1.09944 9.87445 1.76155 9.25298L3.06318 8.03137C3.47047 7.64911 3.73039 7.19887 3.8578 6.65494L4.265 4.91695C4.4721 4.03284 5.19177 3.42895 6.09843 3.37856L7.88066 3.27942C8.43843 3.24839 8.92696 3.07055 9.37419 2.73581L10.8032 1.66612C11.5302 1.122 12.4697 1.12195 13.1966 1.66612L14.6256 2.73581C15.0729 3.07055 15.5615 3.24839 16.1192 3.27942L17.9014 3.37856C18.8081 3.429 19.5277 4.03284 19.7348 4.917L20.142 6.65494C20.2694 7.19892 20.5294 7.64916 20.9367 8.03137L22.2383 9.25298C22.9004 9.87441 23.0635 10.7996 22.6539 11.61L21.8486 13.2031ZM12 4.33378C7.7728 4.33378 4.33377 7.77281 4.33377 12C4.33377 16.2272 7.7728 19.6662 12 19.6662C16.2272 19.6662 19.6662 16.2272 19.6662 12C19.6662 7.77281 16.2272 4.33378 12 4.33378ZM12 18.9162C8.18638 18.9162 5.08377 15.8136 5.08377 12C5.08377 8.18639 8.18638 5.08378 12 5.08378C15.8136 5.08378 18.9162 8.18639 18.9162 12C18.9162 15.8136 15.8136 18.9162 12 18.9162ZM15.1918 8.52516H15.1863C14.8116 8.52661 14.4601 8.67389 14.1968 8.93991L11.0871 12.0806L9.80282 10.7962C9.5376 10.531 9.18491 10.385 8.80972 10.385C8.43449 10.385 8.08185 10.531 7.81658 10.7963C7.26904 11.3439 7.26904 12.2349 7.81658 12.7824L10.0976 15.0634C10.3714 15.3372 10.731 15.4741 11.0907 15.4741C11.4503 15.4741 11.81 15.3372 12.0838 15.0634C12.9486 14.1986 13.8212 13.3135 14.6651 12.4576C15.1719 11.943 15.6794 11.4291 16.1876 10.9158C16.7314 10.367 16.7285 9.4777 16.1812 8.93339C15.9164 8.66995 15.5653 8.52516 15.1918 8.52516ZM15.6548 10.3879C15.1462 10.9016 14.6383 11.416 14.1309 11.931C13.288 12.786 12.4164 13.6701 11.5535 14.533C11.2983 14.7882 10.883 14.7882 10.6279 14.533L8.34697 12.252C8.09183 11.9969 8.09183 11.5817 8.34697 11.3265C8.40761 11.2655 8.47972 11.2172 8.55915 11.1843C8.63859 11.1514 8.72375 11.1346 8.80972 11.1349C8.98452 11.1349 9.14891 11.2029 9.27247 11.3265L10.8232 12.8773C10.8936 12.9476 10.989 12.9871 11.0884 12.9871H11.0893C11.1387 12.987 11.1876 12.9771 11.2332 12.9581C11.2788 12.939 11.3201 12.9111 11.3549 12.876L14.7298 9.46748C14.7898 9.40658 14.8613 9.35821 14.9402 9.32517C15.019 9.29214 15.1037 9.27511 15.1892 9.27506H15.1918C15.3657 9.27506 15.5291 9.34247 15.6524 9.46505C15.907 9.71836 15.9081 10.1323 15.6548 10.3879Z" fill="#0C2454"/>
<path d="M3.53512 4.7453V4.74627L3.12789 6.48358H3.12691C3.03302 6.8845 2.84995 7.20279 2.54977 7.48455L1.24801 8.70623L1.08785 8.86932C0.326112 9.70969 0.156259 10.9187 0.675743 11.9474L0.67672 11.9484L1.48238 13.5412C1.66806 13.9086 1.73139 14.2702 1.68258 14.6789L1.47067 16.4514L1.45309 16.6799C1.40979 17.8133 2.05686 18.8478 3.11617 19.3019L3.11715 19.3029L4.75777 20.0051C5.089 20.1469 5.34558 20.3459 5.55563 20.6242L5.64254 20.7482L6.6191 22.2414L6.62008 22.2424C7.2932 23.2714 8.53658 23.7241 9.71383 23.3683L11.4218 22.8517V22.8508C11.7666 22.7465 12.0911 22.7346 12.4306 22.8127L12.5771 22.8517L14.2861 23.3683C14.482 23.4278 14.6839 23.4654 14.8877 23.4806L15.0927 23.4885C15.9431 23.4883 16.7521 23.0915 17.2783 22.3869L17.3798 22.2424L18.3574 20.7482C18.5827 20.4037 18.8637 20.1671 19.2421 20.0051H19.2412L20.8828 19.3029C22.0133 18.8187 22.6752 17.6725 22.5293 16.4514L22.5283 16.4504L22.6279 16.4396C22.7791 17.7048 22.0932 18.893 20.9218 19.3947L19.2812 20.0978C18.921 20.2522 18.6549 20.4749 18.4404 20.8029L17.4638 22.2971C16.9253 23.1205 16.0333 23.5879 15.0927 23.5881C14.8097 23.5878 14.5276 23.5463 14.2568 23.464L12.5488 22.9474C12.1736 22.834 11.8264 22.834 11.4511 22.9474L9.74215 23.464C8.52245 23.8325 7.23342 23.3633 6.53609 22.2971L5.55953 20.8029C5.34499 20.475 5.07882 20.2522 4.71871 20.0978L3.07711 19.3947C1.90593 18.893 1.21988 17.7047 1.37106 16.4396L1.58297 14.6672C1.62949 14.278 1.56939 13.936 1.39254 13.5861L0.586876 11.9933C0.0121953 10.8562 0.250604 9.50494 1.17965 8.63299L2.48141 7.41131C2.76715 7.14307 2.94084 6.84277 3.03024 6.46112L3.43746 4.72284L3.53512 4.7453ZM2.2402 13.1574C2.50113 13.6736 2.595 14.2062 2.52633 14.7805L2.31441 16.5529C2.21211 17.4103 2.6574 18.1817 3.45113 18.5217L5.09274 19.2238C5.62421 19.4515 6.0379 19.7994 6.35445 20.2834L7.33102 21.7765C7.80374 22.4993 8.64105 22.8047 9.46774 22.5549L11.1767 22.0383C11.4527 21.9549 11.726 21.9123 12 21.9123V22.0129C11.7364 22.0129 11.4723 22.0522 11.205 22.133V22.134L9.49703 22.6506C8.68209 22.8968 7.85438 22.6296 7.34469 21.9689L7.24801 21.8312L6.27047 20.3381C6.00294 19.9291 5.66448 19.6221 5.2402 19.4045L5.0527 19.3166L3.41207 18.6135C2.57732 18.256 2.10704 17.4419 2.21481 16.5402H2.21578L2.42672 14.7678H2.4277C2.49389 14.2134 2.40318 13.7017 2.15133 13.2033L2.2402 13.1574ZM18.9463 19.3166H18.9472C18.4337 19.5365 18.0352 19.8706 17.7295 20.3381L16.7509 21.8312H16.7519C16.2549 22.5912 15.372 22.9133 14.5029 22.6506L12.7949 22.134L12.7939 22.133L12.8232 22.0383L14.5322 22.5549C15.3588 22.8047 16.1962 22.4993 16.6689 21.7765L17.6455 20.2834C17.962 19.7994 18.3756 19.4515 18.9072 19.2238L18.9463 19.3166ZM12 21.9123C12.274 21.9123 12.5472 21.9549 12.8232 22.0383L12.7939 22.133C12.5938 22.0726 12.3957 22.0349 12.1982 22.0197L12 22.0129V21.9123ZM4.23336 12.0002C4.23336 7.71776 7.71755 4.23358 12 4.23358V4.33416C7.77277 4.33416 4.33395 7.77299 4.33395 12.0002L4.34371 12.3937C4.54274 16.3083 7.69182 19.4575 11.6064 19.6564L12 19.6662C16.0951 19.6662 19.4506 16.4386 19.6562 12.3937L19.666 12.0002C19.666 7.90498 16.4385 4.54948 12.3935 4.34393L12 4.33416V4.23358C16.2824 4.23358 19.7666 7.71777 19.7666 12.0002C19.7664 16.2825 16.2823 19.7658 12 19.7658C7.71763 19.7658 4.23349 16.2825 4.23336 12.0002ZM10.8037 1.66619C11.4851 1.1563 12.3528 1.12428 13.0576 1.57049L13.1963 1.66619L14.6259 2.73553C15.0731 3.07021 15.5614 3.24844 16.1191 3.27948L17.9013 3.37811C18.808 3.42855 19.5272 4.03301 19.7343 4.91717L20.1416 6.65448C20.269 7.19844 20.5292 7.64922 20.9365 8.03143L22.2382 9.25311C22.9001 9.87441 23.0635 10.7993 22.6543 11.6096H22.6533L21.8486 13.2033L21.7617 13.3908C21.5765 13.8302 21.5143 14.2827 21.5722 14.7678L21.7841 16.5402C21.8919 17.4418 21.4225 18.2559 20.5879 18.6135L18.9463 19.3166L18.9072 19.2238L20.5488 18.5217C21.3424 18.1816 21.7878 17.4102 21.6855 16.5529L21.4736 14.7805C21.4049 14.2063 21.4989 13.6745 21.7597 13.1584L22.5644 11.5646C22.9539 10.7938 22.7996 9.9164 22.1699 9.32537L20.8681 8.10467C20.4465 7.70903 20.1768 7.24096 20.0449 6.67791L19.6377 4.93963C19.4407 4.09871 18.7579 3.52667 17.8955 3.47869L16.1132 3.37909C15.536 3.3469 15.0283 3.16208 14.5654 2.81561L13.1367 1.74627C12.4453 1.2287 11.5547 1.22874 10.8632 1.74627L9.43453 2.81561C8.97153 3.16215 8.46315 3.34696 7.8857 3.37909L6.10348 3.47869C5.24137 3.52681 4.55922 4.09891 4.36227 4.93963L3.95504 6.67791C3.82312 7.24093 3.55341 7.70897 3.1318 8.10467L1.83004 9.32537C1.20029 9.91647 1.04594 10.7938 1.43551 11.5646L1.34567 11.6096C0.936331 10.7992 1.09969 9.87447 1.76168 9.25311V9.25213L3.06344 8.03143C3.47068 7.64918 3.72999 7.19837 3.85738 6.65448L4.26461 4.91717V4.91619C4.47182 4.03264 5.19151 3.42878 6.09762 3.37811H6.09859L7.88082 3.27948C8.43851 3.24841 8.9268 3.07022 9.37399 2.73553L10.8037 1.66619ZM18.8164 12.0002C18.8164 8.2418 15.7583 5.18378 12 5.18377C8.24158 5.18377 5.18356 8.2418 5.18356 12.0002C5.18369 15.7584 8.24166 18.8166 12 18.8166V18.9162L11.6445 18.9074C8.11323 18.7278 5.2725 15.8869 5.09274 12.3556L5.08395 12.0002C5.08395 8.18657 8.18635 5.08416 12 5.08416L12.3554 5.09295C16.0045 5.2786 18.916 8.30579 18.916 12.0002L18.9072 12.3556C18.7214 16.0046 15.6943 18.9162 12 18.9162V18.8166C15.7583 18.8166 18.8162 15.7584 18.8164 12.0002ZM20.9697 6.46112C21.0591 6.84283 21.2327 7.14313 21.5185 7.41131L22.8203 8.63299C23.7493 9.50505 23.9869 10.8561 23.4121 11.9933L22.6074 13.5861C22.4305 13.936 22.3704 14.278 22.417 14.6672L22.6279 16.4396L22.5283 16.4504L22.3173 14.6789C22.2685 14.2702 22.3318 13.9086 22.5175 13.5412V13.5402L23.3232 11.9484C23.8433 10.9195 23.674 9.71 22.9121 8.86932L22.7519 8.70623L21.4502 7.48455C21.1499 7.20284 20.966 6.88455 20.872 6.48358L20.9697 6.46112ZM8.80953 10.3849C8.43435 10.385 8.0816 10.5308 7.81637 10.7961C7.26886 11.3436 7.2689 12.2349 7.81637 12.7824L10.0976 15.0637C10.3372 15.3031 10.6425 15.438 10.956 15.468L11.0908 15.4738C11.4056 15.4738 11.7203 15.3691 11.9775 15.1594L12.0839 15.0637C12.9487 14.1988 13.8211 13.3131 14.665 12.4572L16.1875 10.9162L16.2588 10.9865C15.7507 11.4997 15.243 12.0131 14.7363 12.5275C13.8924 13.3834 13.0193 14.2688 12.1543 15.134C11.8609 15.4273 11.4757 15.5744 11.0908 15.5744C10.7058 15.5744 10.3206 15.4272 10.0273 15.134L7.74606 12.8527C7.15953 12.2661 7.15949 11.3124 7.74606 10.7258C8.03004 10.4418 8.40784 10.2854 8.80953 10.2853V10.3849ZM15.1914 9.27459C15.3652 9.27459 15.529 9.34245 15.6523 9.46502C15.9068 9.71827 15.9083 10.1323 15.6552 10.3879C15.1467 10.9016 14.6382 11.4159 14.1308 11.9308C13.2879 12.7858 12.4166 13.6705 11.5537 14.5334L11.4511 14.6164C11.1973 14.7841 10.8512 14.7566 10.6279 14.5334L10.6982 14.4621C10.9142 14.6782 11.2662 14.6782 11.4824 14.4621C12.345 13.5995 13.2166 12.7156 14.0595 11.8605C14.5669 11.3455 15.0753 10.8314 15.5839 10.3176C15.7984 10.1011 15.797 9.75063 15.582 9.53631C15.4775 9.43237 15.3388 9.37518 15.1914 9.37518H15.1894C15.1172 9.37522 15.0451 9.38926 14.9785 9.41717C14.9119 9.44508 14.8514 9.48589 14.8007 9.53729V9.53827L11.4257 12.9465C11.3817 12.9909 11.3291 13.0259 11.2714 13.05C11.2139 13.0741 11.1522 13.0869 11.0898 13.0871L11.0888 12.9865C11.1382 12.9864 11.1878 12.9773 11.2334 12.9582C11.2788 12.9392 11.3198 12.9111 11.3545 12.8762V12.8752L14.7295 9.46698C14.7894 9.40611 14.8616 9.35839 14.9404 9.32537C14.9799 9.30883 15.0207 9.29567 15.0625 9.28729L15.1894 9.27459H15.1914ZM8.93844 11.1476C9.06414 11.1726 9.17979 11.2337 9.27242 11.3264L10.8232 12.8771C10.8759 12.9298 10.9426 12.9652 11.0146 12.9797L11.0888 12.9875L11.0898 13.0871H11.0888C10.9631 13.0871 10.8419 13.0372 10.7529 12.9484L9.20211 11.3967C9.12355 11.3181 9.0254 11.2664 8.91891 11.2453L8.80953 11.2346C8.73687 11.2344 8.66476 11.2488 8.59762 11.2765C8.53049 11.3043 8.4692 11.3452 8.41793 11.3967C8.20185 11.6128 8.20192 11.9648 8.41793 12.1808L10.6982 14.4621L10.6269 14.5324L8.34664 12.2521C8.09161 11.997 8.09163 11.5815 8.34664 11.3264C8.40727 11.2654 8.4801 11.2176 8.55953 11.1847C8.63886 11.1519 8.72368 11.1347 8.80953 11.1349L8.93844 11.1476ZM2.2402 13.1574L2.15035 13.2023L1.34567 11.6096L1.43551 11.5646L2.2402 13.1574ZM15.1914 8.42498V8.52557H15.1865C14.8118 8.52702 14.4595 8.67362 14.1963 8.93963H14.1972L11.0869 12.0803L9.8027 10.7961C9.57064 10.5641 9.27162 10.4234 8.94918 10.3918L8.80953 10.3849V10.2853C9.21119 10.2853 9.58904 10.4418 9.87301 10.7258L11.0859 11.9377L14.1259 8.86932C14.4079 8.5846 14.7845 8.42663 15.1855 8.42498H15.1914ZM16.2519 8.86248C16.8383 9.44577 16.8413 10.3986 16.2588 10.9865L16.1875 10.9152C16.7309 10.3665 16.7284 9.47805 16.1816 8.93377L16.1806 8.9328L16.2519 8.86248ZM15.1914 8.42498C15.5912 8.42498 15.9684 8.58039 16.2519 8.86248L16.1806 8.9328C15.9491 8.70268 15.6516 8.56278 15.331 8.53143L15.1914 8.52557V8.42498ZM20.9697 6.46112L20.872 6.48358L20.4648 4.74627L20.4638 4.7453L20.5625 4.72284L20.9697 6.46112ZM10.2939 0.985531C11.314 0.22191 12.686 0.221981 13.706 0.985531L13.6455 1.06463C12.6611 0.328284 11.3378 0.328753 10.3535 1.06561L8.92477 2.13494L8.80074 2.22186C8.50813 2.41169 8.19871 2.51043 7.83883 2.53045L6.0566 2.62909V2.63006C4.82891 2.69842 3.8158 3.5482 3.53512 4.7453L3.43746 4.72284C3.72812 3.48241 4.77872 2.60042 6.05074 2.52948L7.83297 2.43084C8.22439 2.40906 8.55135 2.2898 8.8652 2.05487L10.2939 0.985531ZM15.1347 2.05487C15.4485 2.28969 15.7747 2.40901 16.166 2.43084L17.9482 2.52948C19.2205 2.60023 20.2718 3.48225 20.5625 4.72284L20.4638 4.7453C20.1831 3.54834 19.1709 2.69847 17.9433 2.63006L17.9423 2.62909L16.1611 2.53045C15.8012 2.51043 15.4918 2.41163 15.1992 2.22186L15.0752 2.13494L13.6464 1.06561L13.6455 1.06463L13.706 0.985531L15.1347 2.05487Z" fill="#0C2454"/>
</g>
<defs>
<clipPath id="clip0_1881_5167">
<rect width="24" height="24" fill="white"/>
</clipPath>
</defs>
</svg>
