<svg width="24" height="24" viewBox="0 0 24 24" fill="none" xmlns="http://www.w3.org/2000/svg">
<path d="M6.5 8C6.5 4.96243 8.96243 2.5 12 2.5V4C9.79086 4 8 5.79086 8 8C8 10.2091 9.79086 12 12 12C14.2091 12 16 10.2091 16 8C16 5.79086 14.2091 4 12 4V2.5C15.0376 2.5 17.5 4.96243 17.5 8C17.5 11.0376 15.0376 13.5 12 13.5C8.96243 13.5 6.5 11.0376 6.5 8Z" fill="#0C2454"/>
<path d="M17.25 21V18.5C17.25 18.345 17.0693 17.9061 16.0967 17.4639C15.1892 17.0513 13.8014 16.75 12 16.75C10.1986 16.75 8.8108 17.0513 7.90332 17.4639C6.93068 17.9061 6.75 18.3451 6.75 18.5V21C6.75 21.4142 6.41421 21.75 6 21.75C5.58579 21.75 5.25 21.4142 5.25 21V18.5C5.25 17.405 6.19387 16.5938 7.2832 16.0986C8.43801 15.5737 10.0506 15.25 12 15.25C13.9494 15.25 15.562 15.5737 16.7168 16.0986C17.8061 16.5938 18.75 17.405 18.75 18.5V21C18.75 21.4142 18.4142 21.75 18 21.75C17.6118 21.75 17.2925 21.4551 17.2539 21.0771L17.25 21Z" fill="#0C2454"/>
</svg>
