<svg width="57" height="43" viewBox="0 0 57 43" fill="none" xmlns="http://www.w3.org/2000/svg">
<path d="M8 42.7614V39.0814H8.375V39.6814L8.315 39.5764C8.42167 39.4064 8.56333 39.2714 8.74 39.1714C8.92 39.0714 9.125 39.0214 9.355 39.0214C9.60833 39.0214 9.83333 39.0831 10.03 39.2064C10.23 39.3264 10.3867 39.4914 10.5 39.7014C10.6167 39.9114 10.675 40.1514 10.675 40.4214C10.675 40.6881 10.6167 40.9281 10.5 41.1414C10.3867 41.3514 10.23 41.5181 10.03 41.6414C9.83333 41.7614 9.60833 41.8214 9.355 41.8214C9.125 41.8214 8.91667 41.7698 8.73 41.6664C8.54667 41.5598 8.40833 41.4098 8.315 41.2164L8.375 41.1614V42.7614H8ZM9.335 41.4464C9.515 41.4464 9.675 41.4014 9.815 41.3114C9.95833 41.2214 10.07 41.0998 10.15 40.9464C10.2333 40.7898 10.275 40.6148 10.275 40.4214C10.275 40.2248 10.2333 40.0498 10.15 39.8964C10.07 39.7431 9.95833 39.6214 9.815 39.5314C9.675 39.4414 9.515 39.3964 9.335 39.3964C9.155 39.3964 8.99167 39.4414 8.845 39.5314C8.70167 39.6214 8.58667 39.7448 8.5 39.9014C8.41667 40.0548 8.375 40.2281 8.375 40.4214C8.375 40.6148 8.41667 40.7898 8.5 40.9464C8.58667 41.0998 8.70167 41.2214 8.845 41.3114C8.99167 41.4014 9.155 41.4464 9.335 41.4464Z" fill="#252525"/>
<path d="M12.59 41.8214C12.3366 41.8214 12.1066 41.7614 11.9 41.6414C11.6933 41.5181 11.5283 41.3514 11.405 41.1414C11.285 40.9281 11.225 40.6864 11.225 40.4164C11.225 40.1498 11.285 39.9114 11.405 39.7014C11.525 39.4914 11.6866 39.3264 11.89 39.2064C12.0966 39.0831 12.33 39.0214 12.59 39.0214C12.85 39.0214 13.0816 39.0814 13.285 39.2014C13.4916 39.3214 13.6533 39.4864 13.77 39.6964C13.89 39.9064 13.95 40.1464 13.95 40.4164C13.95 40.6898 13.8883 40.9331 13.765 41.1464C13.6416 41.3564 13.4766 41.5214 13.27 41.6414C13.0666 41.7614 12.84 41.8214 12.59 41.8214ZM12.59 41.4464C12.77 41.4464 12.9316 41.4014 13.075 41.3114C13.2216 41.2214 13.3366 41.0981 13.42 40.9414C13.5066 40.7848 13.55 40.6098 13.55 40.4164C13.55 40.2231 13.5066 40.0498 13.42 39.8964C13.3366 39.7431 13.2216 39.6214 13.075 39.5314C12.9316 39.4414 12.77 39.3964 12.59 39.3964C12.41 39.3964 12.2466 39.4414 12.1 39.5314C11.9566 39.6214 11.8416 39.7431 11.755 39.8964C11.6683 40.0498 11.625 40.2231 11.625 40.4164C11.625 40.6098 11.6683 40.7848 11.755 40.9414C11.8416 41.0981 11.9566 41.2214 12.1 41.3114C12.2466 41.4014 12.41 41.4464 12.59 41.4464Z" fill="#252525"/>
<path d="M15.5875 41.7914C15.3475 41.7914 15.1625 41.7214 15.0325 41.5814C14.9025 41.4414 14.8375 41.2414 14.8375 40.9814V39.4564H14.3425V39.0814H14.4675C14.5808 39.0814 14.6708 39.0448 14.7375 38.9714C14.8042 38.8948 14.8375 38.7998 14.8375 38.6864V38.4614H15.2125V39.0814H15.8025V39.4564H15.2125V40.9814C15.2125 41.0714 15.2258 41.1514 15.2525 41.2214C15.2792 41.2881 15.3242 41.3414 15.3875 41.3814C15.4542 41.4214 15.5425 41.4414 15.6525 41.4414C15.6792 41.4414 15.7108 41.4398 15.7475 41.4364C15.7842 41.4331 15.8158 41.4298 15.8425 41.4264V41.7614C15.8025 41.7714 15.7575 41.7781 15.7075 41.7814C15.6575 41.7881 15.6175 41.7914 15.5875 41.7914Z" fill="#252525"/>
<path d="M17.526 41.7914C17.286 41.7914 17.101 41.7214 16.971 41.5814C16.841 41.4414 16.776 41.2414 16.776 40.9814V39.4564H16.281V39.0814H16.406C16.5193 39.0814 16.6093 39.0448 16.676 38.9714C16.7426 38.8948 16.776 38.7998 16.776 38.6864V38.4614H17.151V39.0814H17.741V39.4564H17.151V40.9814C17.151 41.0714 17.1643 41.1514 17.191 41.2214C17.2176 41.2881 17.2626 41.3414 17.326 41.3814C17.3926 41.4214 17.481 41.4414 17.591 41.4414C17.6176 41.4414 17.6493 41.4398 17.686 41.4364C17.7226 41.4331 17.7543 41.4298 17.781 41.4264V41.7614C17.741 41.7714 17.696 41.7781 17.646 41.7814C17.596 41.7881 17.556 41.7914 17.526 41.7914Z" fill="#252525"/>
<path d="M19.5618 41.8214C19.3118 41.8214 19.0851 41.7614 18.8818 41.6414C18.6818 41.5181 18.5235 41.3498 18.4068 41.1364C18.2901 40.9231 18.2318 40.6814 18.2318 40.4114C18.2318 40.1414 18.2885 39.9031 18.4018 39.6964C18.5151 39.4864 18.6685 39.3214 18.8618 39.2014C19.0585 39.0814 19.2785 39.0214 19.5218 39.0214C19.7151 39.0214 19.8868 39.0581 20.0368 39.1314C20.1901 39.2014 20.3201 39.2981 20.4268 39.4214C20.5335 39.5414 20.6151 39.6781 20.6718 39.8314C20.7285 39.9814 20.7568 40.1364 20.7568 40.2964C20.7568 40.3298 20.7551 40.3681 20.7518 40.4114C20.7485 40.4514 20.7435 40.4931 20.7368 40.5364H18.4718V40.1864H20.5218L20.3418 40.3364C20.3718 40.1531 20.3501 39.9898 20.2768 39.8464C20.2068 39.6998 20.1051 39.5848 19.9718 39.5014C19.8385 39.4148 19.6885 39.3714 19.5218 39.3714C19.3551 39.3714 19.2001 39.4148 19.0568 39.5014C18.9168 39.5881 18.8068 39.7098 18.7268 39.8664C18.6468 40.0198 18.6151 40.2031 18.6318 40.4164C18.6151 40.6298 18.6485 40.8164 18.7318 40.9764C18.8185 41.1331 18.9351 41.2548 19.0818 41.3414C19.2318 41.4281 19.3918 41.4714 19.5618 41.4714C19.7585 41.4714 19.9235 41.4248 20.0568 41.3314C20.1901 41.2381 20.2985 41.1214 20.3818 40.9814L20.7018 41.1514C20.6485 41.2714 20.5668 41.3831 20.4568 41.4864C20.3468 41.5864 20.2151 41.6681 20.0618 41.7314C19.9118 41.7914 19.7451 41.8214 19.5618 41.8214Z" fill="#252525"/>
<path d="M21.418 41.7614V39.0814H21.793V39.5214L21.743 39.4564C21.8063 39.3298 21.9013 39.2298 22.028 39.1564C22.158 39.0831 22.3146 39.0464 22.498 39.0464H22.668V39.4214H22.433C22.2396 39.4214 22.0846 39.4814 21.968 39.6014C21.8513 39.7214 21.793 39.8914 21.793 40.1114V41.7614H21.418Z" fill="#252525"/>
<path d="M23.1624 42.8614C23.1091 42.8614 23.0541 42.8564 22.9974 42.8464C22.9441 42.8398 22.8908 42.8264 22.8374 42.8064V42.4564C22.8708 42.4598 22.9124 42.4648 22.9624 42.4714C23.0158 42.4814 23.0691 42.4864 23.1224 42.4864C23.2858 42.4864 23.4108 42.4514 23.4974 42.3814C23.5841 42.3148 23.6691 42.1848 23.7524 41.9914L23.9224 41.5914L23.9124 41.9214L22.7774 39.0814H23.1824L24.1124 41.4264H24.0074L24.9324 39.0814H25.3474L24.1224 42.1014C24.0691 42.2314 24.0008 42.3548 23.9174 42.4714C23.8374 42.5881 23.7358 42.6814 23.6124 42.7514C23.4891 42.8248 23.3391 42.8614 23.1624 42.8614Z" fill="#252525"/>
<path d="M27.8627 41.8214C27.5994 41.8214 27.3677 41.7598 27.1677 41.6364C26.9677 41.5131 26.811 41.3464 26.6977 41.1364C26.5844 40.9231 26.5277 40.6831 26.5277 40.4164C26.5277 40.1498 26.5844 39.9114 26.6977 39.7014C26.811 39.4914 26.9677 39.3264 27.1677 39.2064C27.3677 39.0831 27.5994 39.0214 27.8627 39.0214C28.0294 39.0214 28.186 39.0514 28.3327 39.1114C28.4794 39.1714 28.6094 39.2531 28.7227 39.3564C28.836 39.4564 28.921 39.5731 28.9777 39.7064L28.6377 39.8814C28.571 39.7381 28.4694 39.6214 28.3327 39.5314C28.196 39.4414 28.0394 39.3964 27.8627 39.3964C27.686 39.3964 27.526 39.4414 27.3827 39.5314C27.2427 39.6181 27.131 39.7398 27.0477 39.8964C26.9677 40.0498 26.9277 40.2248 26.9277 40.4214C26.9277 40.6148 26.9677 40.7898 27.0477 40.9464C27.131 41.0998 27.2427 41.2214 27.3827 41.3114C27.526 41.4014 27.686 41.4464 27.8627 41.4464C28.0394 41.4464 28.1944 41.4014 28.3277 41.3114C28.4644 41.2214 28.5677 41.1014 28.6377 40.9514L28.9777 41.1364C28.921 41.2664 28.836 41.3831 28.7227 41.4864C28.6094 41.5898 28.4794 41.6714 28.3327 41.7314C28.186 41.7914 28.0294 41.8214 27.8627 41.8214Z" fill="#252525"/>
<path d="M30.8907 41.8214C30.6374 41.8214 30.4074 41.7614 30.2007 41.6414C29.9941 41.5181 29.8291 41.3514 29.7057 41.1414C29.5857 40.9281 29.5257 40.6864 29.5257 40.4164C29.5257 40.1498 29.5857 39.9114 29.7057 39.7014C29.8257 39.4914 29.9874 39.3264 30.1907 39.2064C30.3974 39.0831 30.6307 39.0214 30.8907 39.0214C31.1507 39.0214 31.3824 39.0814 31.5857 39.2014C31.7924 39.3214 31.9541 39.4864 32.0707 39.6964C32.1907 39.9064 32.2507 40.1464 32.2507 40.4164C32.2507 40.6898 32.1891 40.9331 32.0657 41.1464C31.9424 41.3564 31.7774 41.5214 31.5707 41.6414C31.3674 41.7614 31.1407 41.8214 30.8907 41.8214ZM30.8907 41.4464C31.0707 41.4464 31.2324 41.4014 31.3757 41.3114C31.5224 41.2214 31.6374 41.0981 31.7207 40.9414C31.8074 40.7848 31.8507 40.6098 31.8507 40.4164C31.8507 40.2231 31.8074 40.0498 31.7207 39.8964C31.6374 39.7431 31.5224 39.6214 31.3757 39.5314C31.2324 39.4414 31.0707 39.3964 30.8907 39.3964C30.7107 39.3964 30.5474 39.4414 30.4007 39.5314C30.2574 39.6214 30.1424 39.7431 30.0557 39.8964C29.9691 40.0498 29.9257 40.2231 29.9257 40.4164C29.9257 40.6098 29.9691 40.7848 30.0557 40.9414C30.1424 41.0981 30.2574 41.2214 30.4007 41.3114C30.5474 41.4014 30.7107 41.4464 30.8907 41.4464Z" fill="#252525"/>
<path d="M32.9121 41.7614V39.0814H33.2871V39.5914L33.2271 39.5164C33.3004 39.3598 33.4088 39.2381 33.5521 39.1514C33.6988 39.0648 33.8588 39.0214 34.0321 39.0214C34.2388 39.0214 34.4254 39.0798 34.5921 39.1964C34.7588 39.3131 34.8771 39.4648 34.9471 39.6514L34.8421 39.6564C34.9088 39.4498 35.0238 39.2931 35.1871 39.1864C35.3538 39.0764 35.5371 39.0214 35.7371 39.0214C35.9171 39.0214 36.0821 39.0648 36.2321 39.1514C36.3854 39.2381 36.5071 39.3581 36.5971 39.5114C36.6904 39.6614 36.7371 39.8314 36.7371 40.0214V41.7614H36.3621V40.1664C36.3621 40.0031 36.3321 39.8648 36.2721 39.7514C36.2154 39.6381 36.1371 39.5514 36.0371 39.4914C35.9371 39.4281 35.8221 39.3964 35.6921 39.3964C35.5654 39.3964 35.4504 39.4281 35.3471 39.4914C35.2438 39.5514 35.1621 39.6398 35.1021 39.7564C35.0421 39.8698 35.0121 40.0064 35.0121 40.1664V41.7614H34.6371V40.1664C34.6371 40.0031 34.6071 39.8648 34.5471 39.7514C34.4904 39.6381 34.4121 39.5514 34.3121 39.4914C34.2121 39.4281 34.0971 39.3964 33.9671 39.3964C33.8371 39.3964 33.7204 39.4281 33.6171 39.4914C33.5171 39.5514 33.4371 39.6398 33.3771 39.7564C33.3171 39.8698 33.2871 40.0064 33.2871 40.1664V41.7614H32.9121Z" fill="#252525"/>
<path d="M37.4531 42.7614V39.0814H37.8281V39.6814L37.7681 39.5764C37.8748 39.4064 38.0165 39.2714 38.1931 39.1714C38.3731 39.0714 38.5781 39.0214 38.8081 39.0214C39.0615 39.0214 39.2865 39.0831 39.4831 39.2064C39.6831 39.3264 39.8398 39.4914 39.9531 39.7014C40.0698 39.9114 40.1281 40.1514 40.1281 40.4214C40.1281 40.6881 40.0698 40.9281 39.9531 41.1414C39.8398 41.3514 39.6831 41.5181 39.4831 41.6414C39.2865 41.7614 39.0615 41.8214 38.8081 41.8214C38.5781 41.8214 38.3698 41.7698 38.1831 41.6664C37.9998 41.5598 37.8615 41.4098 37.7681 41.2164L37.8281 41.1614V42.7614H37.4531ZM38.7881 41.4464C38.9681 41.4464 39.1281 41.4014 39.2681 41.3114C39.4115 41.2214 39.5231 41.0998 39.6031 40.9464C39.6865 40.7898 39.7281 40.6148 39.7281 40.4214C39.7281 40.2248 39.6865 40.0498 39.6031 39.8964C39.5231 39.7431 39.4115 39.6214 39.2681 39.5314C39.1281 39.4414 38.9681 39.3964 38.7881 39.3964C38.6081 39.3964 38.4448 39.4414 38.2981 39.5314C38.1548 39.6214 38.0398 39.7448 37.9531 39.9014C37.8698 40.0548 37.8281 40.2281 37.8281 40.4214C37.8281 40.6148 37.8698 40.7898 37.9531 40.9464C38.0398 41.0998 38.1548 41.2214 38.2981 41.3114C38.4448 41.4014 38.6081 41.4464 38.7881 41.4464Z" fill="#252525"/>
<path d="M41.5631 41.8214C41.3931 41.8214 41.2414 41.7898 41.1081 41.7264C40.9748 41.6598 40.8698 41.5698 40.7931 41.4564C40.7164 41.3431 40.6781 41.2131 40.6781 41.0664C40.6781 40.9264 40.7081 40.7998 40.7681 40.6864C40.8281 40.5698 40.9214 40.4714 41.0481 40.3914C41.1748 40.3114 41.3364 40.2548 41.5331 40.2214L42.5831 40.0464V40.3864L41.6231 40.5464C41.4298 40.5798 41.2898 40.6414 41.2031 40.7314C41.1198 40.8214 41.0781 40.9281 41.0781 41.0514C41.0781 41.1714 41.1248 41.2731 41.2181 41.3564C41.3148 41.4398 41.4381 41.4814 41.5881 41.4814C41.7714 41.4814 41.9314 41.4431 42.0681 41.3664C42.2048 41.2864 42.3114 41.1798 42.3881 41.0464C42.4648 40.9131 42.5031 40.7648 42.5031 40.6014V39.9214C42.5031 39.7614 42.4448 39.6314 42.3281 39.5314C42.2114 39.4314 42.0598 39.3814 41.8731 39.3814C41.7098 39.3814 41.5664 39.4231 41.4431 39.5064C41.3198 39.5864 41.2281 39.6914 41.1681 39.8214L40.8281 39.6364C40.8781 39.5231 40.9564 39.4198 41.0631 39.3264C41.1731 39.2331 41.2981 39.1598 41.4381 39.1064C41.5781 39.0498 41.7231 39.0214 41.8731 39.0214C42.0698 39.0214 42.2431 39.0598 42.3931 39.1364C42.5464 39.2131 42.6648 39.3198 42.7481 39.4564C42.8348 39.5898 42.8781 39.7448 42.8781 39.9214V41.7614H42.5031V41.2264L42.5581 41.2814C42.5114 41.3814 42.4381 41.4731 42.3381 41.5564C42.2414 41.6364 42.1264 41.7014 41.9931 41.7514C41.8631 41.7981 41.7198 41.8214 41.5631 41.8214Z" fill="#252525"/>
<path d="M43.6494 41.7614V39.0814H44.0244V39.6014L43.9394 39.5814C44.0061 39.4081 44.1144 39.2714 44.2644 39.1714C44.4177 39.0714 44.5944 39.0214 44.7944 39.0214C44.9844 39.0214 45.1544 39.0648 45.3044 39.1514C45.4577 39.2381 45.5777 39.3581 45.6644 39.5114C45.7544 39.6614 45.7994 39.8314 45.7994 40.0214V41.7614H45.4244V40.1664C45.4244 40.0031 45.3944 39.8648 45.3344 39.7514C45.2777 39.6381 45.1961 39.5514 45.0894 39.4914C44.9861 39.4281 44.8661 39.3964 44.7294 39.3964C44.5927 39.3964 44.4711 39.4281 44.3644 39.4914C44.2577 39.5514 44.1744 39.6398 44.1144 39.7564C44.0544 39.8698 44.0244 40.0064 44.0244 40.1664V41.7614H43.6494Z" fill="#252525"/>
<path d="M46.5218 42.8614C46.4685 42.8614 46.4135 42.8564 46.3568 42.8464C46.3035 42.8398 46.2501 42.8264 46.1968 42.8064V42.4564C46.2301 42.4598 46.2718 42.4648 46.3218 42.4714C46.3751 42.4814 46.4285 42.4864 46.4818 42.4864C46.6451 42.4864 46.7701 42.4514 46.8568 42.3814C46.9435 42.3148 47.0285 42.1848 47.1118 41.9914L47.2818 41.5914L47.2718 41.9214L46.1368 39.0814H46.5418L47.4718 41.4264H47.3668L48.2918 39.0814H48.7068L47.4818 42.1014C47.4285 42.2314 47.3601 42.3548 47.2768 42.4714C47.1968 42.5881 47.0951 42.6814 46.9718 42.7514C46.8485 42.8248 46.6985 42.8614 46.5218 42.8614Z" fill="#252525"/>
<path d="M0 31.9514C0 31.4748 0.0606667 31.0111 0.182 30.5604C0.303333 30.1098 0.489667 29.7111 0.741 29.3644C0.992333 29.0178 1.30867 28.7404 1.69 28.5324C2.08 28.3244 2.535 28.2204 3.055 28.2204C3.419 28.2204 3.75267 28.2811 4.056 28.4024C4.368 28.5238 4.63667 28.6928 4.862 28.9094C5.08733 29.1174 5.265 29.3731 5.395 29.6764C5.53367 29.9798 5.61167 30.3134 5.629 30.6774C5.12633 30.6774 4.61933 30.6774 4.108 30.6774C3.59667 30.6688 3.094 30.7121 2.6 30.8074C1.85467 30.9548 1.36067 31.2104 1.118 31.5744C1.014 31.7391 0.949 31.9168 0.923 32.1074C0.897 32.2981 0.901333 32.4888 0.936 32.6794C0.970667 32.8614 1.03133 33.0434 1.118 33.2254C1.21333 33.3988 1.31733 33.5548 1.43 33.6934C2.01067 34.3781 2.71267 34.7204 3.536 34.7204C4.06467 34.7204 4.46767 34.6208 4.745 34.4214C5.031 34.2134 5.24767 33.8668 5.395 33.3814C5.395 33.3468 5.41667 33.3381 5.46 33.3554C5.49467 33.3554 5.50333 33.3728 5.486 33.4074C5.39933 33.6934 5.27367 33.9621 5.109 34.2134C4.953 34.4648 4.76233 34.6814 4.537 34.8634C4.31167 35.0454 4.06033 35.1928 3.783 35.3054C3.51433 35.4094 3.22833 35.4614 2.925 35.4614C2.12767 35.4614 1.443 35.1538 0.871 34.5384C0.290333 33.8884 0 33.0261 0 31.9514ZM0.832 32.6924C0.814667 32.6231 0.801667 32.5581 0.793 32.4974C0.793 32.4368 0.793 32.3718 0.793 32.3024C0.793 32.0164 0.858 31.7738 0.988 31.5744C1.118 31.3751 1.287 31.2148 1.495 31.0934C1.703 30.9634 1.94133 30.8638 2.21 30.7944C2.47867 30.7251 2.75167 30.6731 3.029 30.6384C3.30633 30.6038 3.575 30.5864 3.835 30.5864C4.10367 30.5778 4.33767 30.5734 4.537 30.5734V30.4694C4.51967 30.2181 4.498 30.0014 4.472 29.8194C4.45467 29.6374 4.42 29.4901 4.368 29.3774C4.20333 29.0134 3.98667 28.7491 3.718 28.5844C3.44933 28.4198 3.159 28.3374 2.847 28.3374C2.64767 28.3374 2.444 28.3678 2.236 28.4284C2.03667 28.4891 1.83733 28.5758 1.638 28.6884C1.326 28.8531 1.079 29.0828 0.897 29.3774C0.723667 29.6721 0.606667 30.0014 0.546 30.3654C0.485333 30.7208 0.481 31.1021 0.533 31.5094C0.585 31.9081 0.684667 32.3024 0.832 32.6924Z" fill="#020202"/>
<path d="M6.92362 33.7844C6.92362 33.4551 7.01895 33.1604 7.20962 32.9004C7.40895 32.6318 7.64728 32.3934 7.92462 32.1854C8.21062 31.9688 8.51395 31.7824 8.83462 31.6264C9.15528 31.4704 9.44128 31.3361 9.69262 31.2234C9.88328 31.1454 10.061 31.0674 10.2256 30.9894C10.3903 30.9114 10.542 30.8248 10.6806 30.7294C10.776 30.6601 10.8539 30.5561 10.9146 30.4174C10.984 30.2788 11.0143 30.1444 11.0056 30.0144C10.997 29.7804 10.9666 29.5594 10.9146 29.3514C10.8713 29.1434 10.7976 28.9614 10.6936 28.8054C10.5896 28.6494 10.4466 28.5281 10.2646 28.4414C10.0826 28.3461 9.85295 28.2984 9.57562 28.2984C9.40228 28.2984 9.22028 28.3158 9.02962 28.3504C8.84762 28.3851 8.67862 28.4458 8.52262 28.5324C8.36662 28.6104 8.23662 28.7188 8.13262 28.8574C8.02862 28.9874 7.97662 29.1564 7.97662 29.3644L7.98962 29.8324C7.98962 29.9624 7.95928 30.0751 7.89862 30.1704C7.83795 30.2571 7.73395 30.3004 7.58662 30.3004C7.44795 30.3004 7.34828 30.2528 7.28762 30.1574C7.23562 30.0534 7.20962 29.9408 7.20962 29.8194C7.20962 29.5594 7.27895 29.3298 7.41762 29.1304C7.56495 28.9311 7.75128 28.7621 7.97662 28.6234C8.21062 28.4848 8.46628 28.3808 8.74362 28.3114C9.02962 28.2334 9.30695 28.1944 9.57562 28.1944C9.78362 28.1944 9.99162 28.2118 10.1996 28.2464C10.4163 28.2724 10.6156 28.3244 10.7976 28.4024C10.9796 28.4718 11.1443 28.5714 11.2916 28.7014C11.439 28.8228 11.556 28.9831 11.6426 29.1824C11.66 29.2344 11.686 29.3558 11.7206 29.5464C11.7553 29.7284 11.7726 30.0404 11.7726 30.4824V32.9654C11.7726 33.2081 11.7726 33.4118 11.7726 33.5764C11.7726 33.7324 11.7726 33.8624 11.7726 33.9664C11.7813 34.0618 11.7856 34.1398 11.7856 34.2004C11.7943 34.2524 11.803 34.2914 11.8116 34.3174C11.8463 34.4908 11.907 34.6381 11.9936 34.7594C12.089 34.8808 12.2363 34.9414 12.4356 34.9414H12.5136C12.3663 35.0801 12.2016 35.1928 12.0196 35.2794C11.8463 35.3661 11.6556 35.4094 11.4476 35.4094C11.309 35.4094 11.1833 35.3834 11.0706 35.3314C10.958 35.2794 10.8453 35.2231 10.7326 35.1624C10.568 35.0758 10.4206 35.0151 10.2906 34.9804C10.1693 34.9458 10.061 34.9284 9.96562 34.9284C9.82695 34.9284 9.70128 34.9544 9.58862 35.0064C9.48462 35.0498 9.37628 35.1018 9.26362 35.1624C9.15095 35.2144 9.02528 35.2664 8.88662 35.3184C8.74795 35.3618 8.57895 35.3834 8.37962 35.3834C7.90295 35.3834 7.53895 35.2318 7.28762 34.9284C7.04495 34.6251 6.92362 34.2438 6.92362 33.7844ZM8.11962 34.5644C8.24962 34.7031 8.39262 34.8158 8.54862 34.9024C8.70462 34.9804 8.86928 35.0194 9.04262 35.0194C9.17262 35.0194 9.30262 34.9934 9.43262 34.9414C9.53662 34.8981 9.63195 34.8678 9.71862 34.8504C9.81395 34.8331 9.90062 34.8244 9.97862 34.8244C10.1346 34.8244 10.2776 34.8504 10.4076 34.9024C10.5376 34.9544 10.6633 35.0151 10.7846 35.0844C10.854 35.1278 10.9276 35.1668 11.0056 35.2014C11.0923 35.2361 11.1746 35.2621 11.2526 35.2794C11.2353 35.2708 11.2223 35.2621 11.2136 35.2534C11.2136 35.2448 11.205 35.2318 11.1876 35.2144C11.1443 35.1711 11.1053 35.0931 11.0706 34.9804C11.036 34.8591 11.0143 34.6858 11.0056 34.4604V30.5994C10.8496 30.7554 10.6633 30.8898 10.4466 31.0024C10.23 31.1064 9.99595 31.2148 9.74462 31.3274C9.42395 31.4574 9.09462 31.6351 8.75662 31.8604C8.42728 32.0771 8.15862 32.3241 7.95062 32.6014C7.75128 32.8788 7.64728 33.1864 7.63862 33.5244C7.62995 33.8538 7.79028 34.2004 8.11962 34.5644Z" fill="#020202"/>
<path d="M13.5924 28.8054L14.9314 28.2594V30.0144C15.0094 29.8151 15.1307 29.6158 15.2954 29.4164C15.4601 29.2084 15.6464 29.0221 15.8544 28.8574C16.0624 28.6841 16.2791 28.5454 16.5044 28.4414C16.7384 28.3288 16.9637 28.2724 17.1804 28.2724C17.3711 28.2724 17.5271 28.3288 17.6484 28.4414C17.7524 28.5368 17.8131 28.6581 17.8304 28.8054C17.8564 28.9441 17.8174 29.0698 17.7134 29.1824C17.6267 29.2691 17.5314 29.3124 17.4274 29.3124C17.3494 29.3124 17.2714 29.2951 17.1934 29.2604C17.1154 29.2171 17.0417 29.1651 16.9724 29.1044C16.7471 28.9311 16.5261 28.8444 16.3094 28.8444C16.1447 28.8444 15.9887 28.8878 15.8414 28.9744C15.7027 29.0611 15.5727 29.1738 15.4514 29.3124C15.3387 29.4511 15.2347 29.6071 15.1394 29.7804C15.0527 29.9451 14.9834 30.1141 14.9314 30.2874V33.8104C14.9314 34.0878 14.9574 34.3521 15.0094 34.6034C15.0701 34.8548 15.2174 35.0671 15.4514 35.2404H13.8134C13.9521 35.1278 14.0561 34.9544 14.1254 34.7204C14.1427 34.6858 14.1557 34.6121 14.1644 34.4994C14.1731 34.3868 14.1774 34.1788 14.1774 33.8754V31.0284C14.1774 30.7338 14.1731 30.4954 14.1644 30.3134C14.1644 30.1228 14.1601 29.9711 14.1514 29.8584C14.1514 29.7371 14.1471 29.6461 14.1384 29.5854C14.1384 29.5248 14.1341 29.4814 14.1254 29.4554C14.0907 29.2994 14.0301 29.1651 13.9434 29.0524C13.8654 28.9311 13.7484 28.8488 13.5924 28.8054Z" fill="#020202"/>
<path d="M18.3478 28.4284C18.6164 28.2291 18.8591 28.0124 19.0758 27.7784C19.3011 27.5444 19.5004 27.2844 19.6738 26.9984C19.7171 26.9464 19.7561 26.8814 19.7908 26.8034C19.8254 26.7254 19.8644 26.6388 19.9078 26.5434V28.3114H20.6098C20.6358 28.3114 20.6488 28.3288 20.6488 28.3634C20.6488 28.3981 20.6358 28.4154 20.6098 28.4154H19.9078V33.4724C19.9078 34.0184 20.0031 34.3998 20.1938 34.6164C20.3758 34.8504 20.5794 34.9674 20.8048 34.9674C20.9261 34.9674 21.0388 34.9371 21.1428 34.8764C21.2554 34.8071 21.3638 34.7248 21.4678 34.6294C21.5718 34.5341 21.6671 34.4258 21.7538 34.3044C21.8404 34.1744 21.9141 34.0531 21.9748 33.9404C22.1568 33.6024 22.3041 33.2384 22.4168 32.8484C22.5294 32.4498 22.6378 32.0511 22.7418 31.6524C22.8544 31.2538 22.9758 30.8681 23.1058 30.4954C23.2358 30.1228 23.4048 29.7934 23.6128 29.5074C23.8728 29.1261 24.1978 28.8141 24.5878 28.5714C24.9778 28.3288 25.3678 28.2074 25.7578 28.2074C26.0611 28.2074 26.3384 28.3028 26.5898 28.4934C26.8411 28.6841 27.0318 29.0004 27.1618 29.4424C27.2571 29.7718 27.3048 30.3698 27.3048 31.2364V33.8364C27.3048 34.0964 27.3178 34.3131 27.3438 34.4864C27.3698 34.6598 27.4044 34.7984 27.4478 34.9024C27.4651 34.9631 27.4911 35.0194 27.5258 35.0714C27.5604 35.1148 27.5994 35.1581 27.6428 35.2014H26.1998C26.3558 35.0714 26.4598 34.8894 26.5118 34.6554V34.6294C26.5204 34.6034 26.5248 34.5384 26.5248 34.4344C26.5334 34.3218 26.5378 34.1224 26.5378 33.8364V31.2364C26.5378 30.3958 26.4901 29.8368 26.3948 29.5594C26.2821 29.2301 26.1261 28.9918 25.9268 28.8444C25.7274 28.6971 25.5108 28.6234 25.2768 28.6234C24.9994 28.6234 24.7134 28.7101 24.4188 28.8834C24.1328 29.0568 23.8858 29.2821 23.6778 29.5594C23.4611 29.8628 23.3008 30.1921 23.1968 30.5474C23.0928 30.8941 23.0234 31.2538 22.9888 31.6264C22.9541 31.9991 22.9411 32.3718 22.9498 32.7444C22.9584 33.1171 22.9628 33.4811 22.9628 33.8364C22.9628 33.9491 22.9628 34.0704 22.9628 34.2004C22.9628 34.3304 22.9714 34.4561 22.9888 34.5774C23.0061 34.6988 23.0364 34.8158 23.0798 34.9284C23.1318 35.0324 23.2098 35.1234 23.3138 35.2014H21.8448C21.9748 35.0801 22.0614 34.9284 22.1048 34.7464C22.2088 34.4431 22.1914 34.2914 22.0528 34.2914C21.9488 34.2914 21.8101 34.3911 21.6368 34.5904C21.4634 34.7898 21.2598 34.9631 21.0258 35.1104C20.7918 35.2491 20.5491 35.3184 20.2978 35.3184C20.0551 35.3184 19.8558 35.2708 19.6998 35.1754C19.5524 35.0714 19.4354 34.9414 19.3488 34.7854C19.2708 34.6294 19.2188 34.4518 19.1928 34.2524C19.1668 34.0531 19.1538 33.8494 19.1538 33.6414V28.4284H18.3478ZM22.9368 24.3724H22.9628V30.5604C22.9108 30.7164 22.8588 30.8768 22.8068 31.0414C22.7634 31.2061 22.7158 31.3751 22.6638 31.5484C22.5944 31.8084 22.5208 32.0728 22.4428 32.3414C22.3734 32.6014 22.2911 32.8571 22.1958 33.1084V27.1934C22.1958 26.9074 22.1914 26.6691 22.1828 26.4784C22.1828 26.2791 22.1784 26.1188 22.1698 25.9974C22.1698 25.8761 22.1654 25.7851 22.1568 25.7244C22.1481 25.6638 22.1394 25.6161 22.1308 25.5814C22.0788 25.3214 21.9878 25.1394 21.8578 25.0354C21.8144 25.0094 21.7754 24.9878 21.7408 24.9704C21.7148 24.9444 21.6801 24.9228 21.6368 24.9054L22.9368 24.3724Z" fill="#020202"/>
<path d="M28.2724 28.4804H29.8064C29.763 28.5238 29.7197 28.5888 29.6764 28.6754C29.6417 28.7534 29.6244 28.8531 29.6244 28.9744C29.6244 29.1651 29.6764 29.4034 29.7804 29.6894L31.5354 34.3824L33.3164 30.4954C33.351 30.4174 33.3684 30.3264 33.3684 30.2224C33.3684 30.1098 33.3554 30.0144 33.3294 29.9364L33.0434 29.1824C32.9134 28.8531 32.753 28.6191 32.5624 28.4804H34.1094C33.9534 28.6018 33.8667 28.7621 33.8494 28.9614C33.832 29.1608 33.858 29.3471 33.9274 29.5204L35.7994 34.2654L37.8404 29.0654C37.875 28.9701 37.8707 28.8661 37.8274 28.7534C37.7927 28.6321 37.7407 28.5411 37.6714 28.4804H38.4254C38.3387 28.5411 38.252 28.6104 38.1654 28.6884C38.0874 28.7664 38.0267 28.8661 37.9834 28.9874L35.4744 35.3834L33.4854 30.3394L31.1974 35.3704L28.9484 29.4814C28.7837 29.0481 28.606 28.7491 28.4154 28.5844C28.3894 28.5498 28.3417 28.5151 28.2724 28.4804Z" fill="#020202"/>
<path d="M39.1921 33.7844C39.1921 33.4551 39.2874 33.1604 39.4781 32.9004C39.6774 32.6318 39.9157 32.3934 40.1931 32.1854C40.4791 31.9688 40.7824 31.7824 41.1031 31.6264C41.4237 31.4704 41.7097 31.3361 41.9611 31.2234C42.1517 31.1454 42.3294 31.0674 42.4941 30.9894C42.6587 30.9114 42.8104 30.8248 42.9491 30.7294C43.0444 30.6601 43.1224 30.5561 43.1831 30.4174C43.2524 30.2788 43.2827 30.1444 43.2741 30.0144C43.2654 29.7804 43.2351 29.5594 43.1831 29.3514C43.1397 29.1434 43.0661 28.9614 42.9621 28.8054C42.8581 28.6494 42.7151 28.5281 42.5331 28.4414C42.3511 28.3461 42.1214 28.2984 41.8441 28.2984C41.6707 28.2984 41.4887 28.3158 41.2981 28.3504C41.1161 28.3851 40.9471 28.4458 40.7911 28.5324C40.6351 28.6104 40.5051 28.7188 40.4011 28.8574C40.2971 28.9874 40.2451 29.1564 40.2451 29.3644L40.2581 29.8324C40.2581 29.9624 40.2277 30.0751 40.1671 30.1704C40.1064 30.2571 40.0024 30.3004 39.8551 30.3004C39.7164 30.3004 39.6167 30.2528 39.5561 30.1574C39.5041 30.0534 39.4781 29.9408 39.4781 29.8194C39.4781 29.5594 39.5474 29.3298 39.6861 29.1304C39.8334 28.9311 40.0197 28.7621 40.2451 28.6234C40.4791 28.4848 40.7347 28.3808 41.0121 28.3114C41.2981 28.2334 41.5754 28.1944 41.8441 28.1944C42.0521 28.1944 42.2601 28.2118 42.4681 28.2464C42.6847 28.2724 42.8841 28.3244 43.0661 28.4024C43.2481 28.4718 43.4127 28.5714 43.5601 28.7014C43.7074 28.8228 43.8244 28.9831 43.9111 29.1824C43.9284 29.2344 43.9544 29.3558 43.9891 29.5464C44.0237 29.7284 44.0411 30.0404 44.0411 30.4824V32.9654C44.0411 33.2081 44.0411 33.4118 44.0411 33.5764C44.0411 33.7324 44.0411 33.8624 44.0411 33.9664C44.0497 34.0618 44.0541 34.1398 44.0541 34.2004C44.0627 34.2524 44.0714 34.2914 44.0801 34.3174C44.1147 34.4908 44.1754 34.6381 44.2621 34.7594C44.3574 34.8808 44.5047 34.9414 44.7041 34.9414H44.7821C44.6347 35.0801 44.4701 35.1928 44.2881 35.2794C44.1147 35.3661 43.9241 35.4094 43.7161 35.4094C43.5774 35.4094 43.4517 35.3834 43.3391 35.3314C43.2264 35.2794 43.1137 35.2231 43.0011 35.1624C42.8364 35.0758 42.6891 35.0151 42.5591 34.9804C42.4377 34.9458 42.3294 34.9284 42.2341 34.9284C42.0954 34.9284 41.9697 34.9544 41.8571 35.0064C41.7531 35.0498 41.6447 35.1018 41.5321 35.1624C41.4194 35.2144 41.2937 35.2664 41.1551 35.3184C41.0164 35.3618 40.8474 35.3834 40.6481 35.3834C40.1714 35.3834 39.8074 35.2318 39.5561 34.9284C39.3134 34.6251 39.1921 34.2438 39.1921 33.7844ZM40.3881 34.5644C40.5181 34.7031 40.6611 34.8158 40.8171 34.9024C40.9731 34.9804 41.1377 35.0194 41.3111 35.0194C41.4411 35.0194 41.5711 34.9934 41.7011 34.9414C41.8051 34.8981 41.9004 34.8678 41.9871 34.8504C42.0824 34.8331 42.1691 34.8244 42.2471 34.8244C42.4031 34.8244 42.5461 34.8504 42.6761 34.9024C42.8061 34.9544 42.9317 35.0151 43.0531 35.0844C43.1224 35.1278 43.1961 35.1668 43.2741 35.2014C43.3607 35.2361 43.4431 35.2621 43.5211 35.2794C43.5037 35.2708 43.4907 35.2621 43.4821 35.2534C43.4821 35.2448 43.4734 35.2318 43.4561 35.2144C43.4127 35.1711 43.3737 35.0931 43.3391 34.9804C43.3044 34.8591 43.2827 34.6858 43.2741 34.4604V30.5994C43.1181 30.7554 42.9317 30.8898 42.7151 31.0024C42.4984 31.1064 42.2644 31.2148 42.0131 31.3274C41.6924 31.4574 41.3631 31.6351 41.0251 31.8604C40.6957 32.0771 40.4271 32.3241 40.2191 32.6014C40.0197 32.8788 39.9157 33.1864 39.9071 33.5244C39.8984 33.8538 40.0587 34.2004 40.3881 34.5644Z" fill="#020202"/>
<path d="M45.8609 28.8054L47.1999 28.2594V30.0144C47.2779 29.8151 47.3992 29.6158 47.5639 29.4164C47.7285 29.2084 47.9149 29.0221 48.1229 28.8574C48.3309 28.6841 48.5475 28.5454 48.7729 28.4414C49.0069 28.3288 49.2322 28.2724 49.4489 28.2724C49.6395 28.2724 49.7955 28.3288 49.9169 28.4414C50.0209 28.5368 50.0815 28.6581 50.0989 28.8054C50.1249 28.9441 50.0859 29.0698 49.9819 29.1824C49.8952 29.2691 49.7999 29.3124 49.6959 29.3124C49.6179 29.3124 49.5399 29.2951 49.4619 29.2604C49.3839 29.2171 49.3102 29.1651 49.2409 29.1044C49.0155 28.9311 48.7945 28.8444 48.5779 28.8444C48.4132 28.8444 48.2572 28.8878 48.1099 28.9744C47.9712 29.0611 47.8412 29.1738 47.7199 29.3124C47.6072 29.4511 47.5032 29.6071 47.4079 29.7804C47.3212 29.9451 47.2519 30.1141 47.1999 30.2874V33.8104C47.1999 34.0878 47.2259 34.3521 47.2779 34.6034C47.3385 34.8548 47.4859 35.0671 47.7199 35.2404H46.0819C46.2205 35.1278 46.3245 34.9544 46.3939 34.7204C46.4112 34.6858 46.4242 34.6121 46.4329 34.4994C46.4415 34.3868 46.4459 34.1788 46.4459 33.8754V31.0284C46.4459 30.7338 46.4415 30.4954 46.4329 30.3134C46.4329 30.1228 46.4285 29.9711 46.4199 29.8584C46.4199 29.7371 46.4155 29.6461 46.4069 29.5854C46.4069 29.5248 46.4025 29.4814 46.3939 29.4554C46.3592 29.2994 46.2985 29.1651 46.2119 29.0524C46.1339 28.9311 46.0169 28.8488 45.8609 28.8054Z" fill="#020202"/>
<path d="M50.7315 31.9514C50.7315 31.4748 50.7921 31.0111 50.9135 30.5604C51.0348 30.1098 51.2212 29.7111 51.4725 29.3644C51.7238 29.0178 52.0401 28.7404 52.4215 28.5324C52.8115 28.3244 53.2665 28.2204 53.7865 28.2204C54.1505 28.2204 54.4841 28.2811 54.7875 28.4024C55.0995 28.5238 55.3681 28.6928 55.5935 28.9094C55.8188 29.1174 55.9965 29.3731 56.1265 29.6764C56.2652 29.9798 56.3432 30.3134 56.3605 30.6774C55.8578 30.6774 55.3508 30.6774 54.8395 30.6774C54.3282 30.6688 53.8255 30.7121 53.3315 30.8074C52.5861 30.9548 52.0922 31.2104 51.8495 31.5744C51.7455 31.7391 51.6805 31.9168 51.6545 32.1074C51.6285 32.2981 51.6328 32.4888 51.6675 32.6794C51.7022 32.8614 51.7628 33.0434 51.8495 33.2254C51.9448 33.3988 52.0488 33.5548 52.1615 33.6934C52.7422 34.3781 53.4441 34.7204 54.2675 34.7204C54.7961 34.7204 55.1991 34.6208 55.4765 34.4214C55.7625 34.2134 55.9792 33.8668 56.1265 33.3814C56.1265 33.3468 56.1481 33.3381 56.1915 33.3554C56.2261 33.3554 56.2348 33.3728 56.2175 33.4074C56.1308 33.6934 56.0052 33.9621 55.8405 34.2134C55.6845 34.4648 55.4938 34.6814 55.2685 34.8634C55.0431 35.0454 54.7918 35.1928 54.5145 35.3054C54.2458 35.4094 53.9598 35.4614 53.6565 35.4614C52.8591 35.4614 52.1745 35.1538 51.6025 34.5384C51.0218 33.8884 50.7315 33.0261 50.7315 31.9514ZM51.5635 32.6924C51.5462 32.6231 51.5331 32.5581 51.5245 32.4974C51.5245 32.4368 51.5245 32.3718 51.5245 32.3024C51.5245 32.0164 51.5895 31.7738 51.7195 31.5744C51.8495 31.3751 52.0185 31.2148 52.2265 31.0934C52.4345 30.9634 52.6728 30.8638 52.9415 30.7944C53.2101 30.7251 53.4831 30.6731 53.7605 30.6384C54.0378 30.6038 54.3065 30.5864 54.5665 30.5864C54.8351 30.5778 55.0691 30.5734 55.2685 30.5734V30.4694C55.2511 30.2181 55.2295 30.0014 55.2035 29.8194C55.1862 29.6374 55.1515 29.4901 55.0995 29.3774C54.9348 29.0134 54.7181 28.7491 54.4495 28.5844C54.1808 28.4198 53.8905 28.3374 53.5785 28.3374C53.3792 28.3374 53.1755 28.3678 52.9675 28.4284C52.7682 28.4891 52.5688 28.5758 52.3695 28.6884C52.0575 28.8531 51.8105 29.0828 51.6285 29.3774C51.4551 29.6721 51.3382 30.0014 51.2775 30.3654C51.2168 30.7208 51.2125 31.1021 51.2645 31.5094C51.3165 31.9081 51.4162 32.3024 51.5635 32.6924Z" fill="#020202"/>
<path d="M22.1726 0.801464C21.9051 1.06899 22.0389 1.89664 22.3482 1.89664C22.3984 1.89664 22.4402 1.95516 22.4402 2.02204C22.4402 2.08892 22.4987 2.14744 22.5739 2.14744C22.6408 2.14744 22.7578 2.1976 22.8164 2.24776C23.1173 2.51528 23.2009 2.56544 23.3598 2.56544C23.4517 2.56544 23.527 2.59888 23.527 2.64904C23.527 2.69085 23.6189 2.74937 23.736 2.78281C23.853 2.80789 23.945 2.86641 23.945 2.90821C23.945 2.95001 24.0202 2.98345 24.1205 2.98345C24.2125 2.98345 24.3463 3.04197 24.4131 3.10885C24.4884 3.17573 24.6305 3.23425 24.7475 3.23425C24.8562 3.23425 24.9482 3.26769 24.9482 3.31785C24.9482 3.35965 25.0569 3.40145 25.1906 3.40145C25.3244 3.40145 25.4749 3.45997 25.5334 3.52685C25.6003 3.61046 25.7926 3.65226 26.127 3.65226C26.4028 3.65226 26.6202 3.6857 26.6202 3.73586C26.6202 3.78602 27.1803 3.81946 28.125 3.81946C29.0697 3.81946 29.6298 3.78602 29.6298 3.73586C29.6298 3.6857 29.8305 3.65226 30.0813 3.65226C30.4073 3.65226 30.5411 3.61882 30.5829 3.52685C30.608 3.45161 30.7417 3.40145 30.9257 3.40145C31.0845 3.40145 31.2183 3.35965 31.2183 3.31785C31.2183 3.26769 31.3102 3.23425 31.4189 3.23425C31.5276 3.23425 31.6613 3.17573 31.7199 3.10885C31.7784 3.04197 31.9121 2.98345 32.0208 2.98345C32.1295 2.98345 32.2215 2.95001 32.2215 2.90821C32.2215 2.86641 32.3134 2.80789 32.4305 2.78281C32.5475 2.74937 32.6395 2.69085 32.6395 2.64904C32.6395 2.59888 32.698 2.56544 32.7732 2.56544C32.8401 2.56544 32.9572 2.51528 33.0157 2.45676C33.2999 2.20596 33.3919 2.14744 33.4922 2.14744C33.6343 2.14744 34.0523 1.65419 34.1192 1.41175C34.1777 1.16931 34.0189 0.809824 33.8517 0.809824C33.7848 0.809824 33.7263 0.768023 33.7263 0.726223C33.7263 0.667702 31.77 0.642622 28.0247 0.650982C22.6742 0.650982 22.3064 0.659342 22.1726 0.801464Z" fill="black"/>
<path d="M19.1883 1.78802C19.1799 1.84654 19.088 1.8967 18.9709 1.8967C18.8037 1.8967 18.7619 1.94686 18.7117 2.18931C18.6449 2.54879 18.7452 3.40152 18.8539 3.40152C18.8957 3.40152 18.9291 3.49348 18.9291 3.61052C18.9291 3.72756 19.0211 4.01181 19.1381 4.25425C19.2552 4.48833 19.3471 4.73078 19.3471 4.7893C19.3471 4.84782 19.3722 4.90634 19.414 4.92306C19.4474 4.93142 19.5645 5.13206 19.6815 5.34942C19.7986 5.57514 19.9574 5.82595 20.041 5.90955C20.1162 6.00151 20.1831 6.11019 20.1831 6.16035C20.1831 6.20215 20.2082 6.24395 20.25 6.24395C20.2834 6.24395 20.3838 6.37771 20.4674 6.53656C20.5593 6.6954 20.6596 6.82916 20.7014 6.82916C20.7349 6.82916 20.7683 6.88768 20.7683 6.95456C20.7683 7.02144 20.8185 7.07996 20.877 7.07996C20.9439 7.07996 21.0442 7.17192 21.1027 7.28896C21.1613 7.40601 21.2449 7.49797 21.2867 7.49797C21.3285 7.49797 21.504 7.64845 21.6796 7.83237C21.8551 8.01629 22.0223 8.16677 22.0641 8.16677C22.0976 8.16677 22.2146 8.25874 22.3233 8.37578C22.432 8.49282 22.5574 8.58478 22.6075 8.58478C22.6911 8.58478 22.7831 8.65166 23.0674 8.8941C23.1259 8.95262 23.2346 9.00278 23.3014 9.00278C23.3683 9.00278 23.4436 9.0613 23.477 9.12819C23.5021 9.19507 23.6024 9.25359 23.6944 9.25359C23.7863 9.25359 23.8616 9.28703 23.8616 9.33719C23.8616 9.37899 23.9452 9.42079 24.0538 9.42079C24.1542 9.42079 24.313 9.47931 24.3966 9.54619C24.4886 9.61307 24.6474 9.67159 24.7561 9.67159C24.8648 9.67159 24.9484 9.70503 24.9484 9.75519C24.9484 9.79699 25.032 9.83879 25.1407 9.83879C25.2493 9.83879 25.4082 9.89731 25.5001 9.9642C25.5921 10.0311 25.8429 10.0896 26.0937 10.0896C26.3529 10.0896 26.5368 10.1314 26.5535 10.1899C26.6037 10.332 29.6467 10.332 29.6969 10.1899C29.7136 10.1314 29.8975 10.0896 30.14 10.0896C30.3657 10.0896 30.5496 10.0562 30.5496 10.006C30.5496 9.9642 30.7001 9.89731 30.884 9.87223C31.068 9.83879 31.2184 9.78863 31.2184 9.74683C31.2184 9.70503 31.302 9.67159 31.4107 9.67159C31.511 9.67159 31.6699 9.61307 31.7535 9.54619C31.8454 9.47931 31.9876 9.42079 32.0712 9.42079C32.1548 9.42079 32.2217 9.37899 32.2217 9.33719C32.2217 9.28703 32.3136 9.25359 32.4223 9.25359C32.531 9.25359 32.6397 9.19507 32.6731 9.12819C32.6982 9.0613 32.7818 9.00278 32.857 9.00278C32.9323 9.00278 33.0827 8.91082 33.1914 8.79378C33.3001 8.67674 33.4422 8.58478 33.5175 8.58478C33.5843 8.58478 33.6429 8.54298 33.6429 8.50118C33.6429 8.45102 33.7098 8.38414 33.785 8.35906C33.8602 8.32562 34.0609 8.16677 34.2281 8.00793C34.3953 7.84073 34.6795 7.58157 34.8467 7.43109C35.0223 7.28896 35.1393 7.16356 35.1142 7.16356C35.0557 7.16356 35.2647 6.9044 35.5741 6.58672C35.6911 6.46968 35.8917 6.20215 36.0255 5.99315C36.1509 5.78415 36.2847 5.60023 36.3097 5.57514C36.4017 5.4999 36.6525 4.98158 36.6525 4.86454C36.6525 4.80602 36.6776 4.73914 36.7194 4.72242C36.8281 4.68061 37.4885 2.79959 37.4885 2.54043C37.4885 2.45683 37.43 2.28127 37.3631 2.14751C37.2461 1.92178 37.1875 1.8967 36.8531 1.8967C36.6023 1.8967 36.4686 1.9385 36.4351 2.0221C36.4017 2.08899 36.3348 2.14751 36.2679 2.14751C36.2011 2.14751 36.1509 2.18095 36.1509 2.23111C36.1509 2.27291 36.0924 2.31471 36.0255 2.31471C35.9503 2.31471 35.875 2.37323 35.8499 2.44011C35.8165 2.50699 35.7663 2.56551 35.7245 2.56551C35.6744 2.56551 35.5824 2.61567 35.5155 2.66583C35.4486 2.72435 35.3483 2.81631 35.2898 2.85811C35.2313 2.90827 35.0474 3.01696 34.8802 3.10892C34.7046 3.20088 34.5625 3.3012 34.5625 3.32628C34.5625 3.35972 34.4705 3.40988 34.3535 3.43496C34.2364 3.4684 34.1445 3.52692 34.1445 3.56872C34.1445 3.61888 34.0525 3.65232 33.9355 3.65232C33.8184 3.65232 33.7265 3.68576 33.7265 3.72756C33.7265 3.76936 33.6345 3.82789 33.5175 3.85297C33.4004 3.88641 33.3085 3.94493 33.3085 3.98673C33.3085 4.03689 33.1998 4.07033 33.0577 4.07033C32.9239 4.07033 32.8069 4.10377 32.8069 4.14557C32.8069 4.18737 32.6731 4.24589 32.5143 4.27097C32.3554 4.30441 32.2217 4.36293 32.2217 4.40473C32.2217 4.45489 32.0963 4.48833 31.9541 4.48833C31.8036 4.48833 31.603 4.54685 31.5194 4.61373C31.4274 4.68061 31.1934 4.73914 30.9844 4.73914C30.767 4.73914 30.6416 4.77258 30.675 4.82274C30.7085 4.8729 30.5246 4.90634 30.1818 4.90634C29.8892 4.90634 29.5381 4.94814 29.4127 4.98994C28.9779 5.15714 27.5484 5.18222 26.8712 5.0401C26.5284 4.96486 26.0686 4.90634 25.8429 4.90634C25.6255 4.90634 25.3831 4.8729 25.2995 4.8311C25.2243 4.78094 25.0153 4.72242 24.8481 4.69733C24.6725 4.67225 24.5304 4.61373 24.5304 4.57193C24.5304 4.52177 24.3799 4.48833 24.196 4.48833C24.012 4.48833 23.8616 4.45489 23.8616 4.40473C23.8616 4.36293 23.7278 4.30441 23.569 4.27097C23.4101 4.24589 23.2764 4.18737 23.2764 4.14557C23.2764 4.10377 23.176 4.07033 23.059 4.07033C22.942 4.07033 22.7915 4.01181 22.7246 3.94493C22.6493 3.87805 22.5239 3.81952 22.432 3.81952C22.3484 3.81952 22.2731 3.77772 22.2731 3.73592C22.2731 3.68576 22.1812 3.65232 22.0641 3.65232C21.9304 3.65232 21.8551 3.60216 21.8551 3.52692C21.8551 3.46004 21.7966 3.40152 21.7297 3.40152C21.6043 3.40152 21.5207 3.35136 21.2281 3.08384C21.1696 3.03368 21.0693 2.98352 21.0191 2.98352C20.969 2.98352 20.8436 2.89155 20.7349 2.77451C20.6262 2.65747 20.459 2.56551 20.3587 2.56551C20.2584 2.56551 20.1831 2.51535 20.1831 2.44011C20.1831 2.37323 20.1413 2.31471 20.0912 2.31471C20.0326 2.31471 19.9072 2.22275 19.7986 2.10571C19.6899 1.98866 19.531 1.8967 19.4391 1.8967C19.3555 1.8967 19.2552 1.84654 19.2384 1.78802C19.205 1.70442 19.1883 1.70442 19.1883 1.78802Z" fill="black"/>
<path d="M16.7803 6.89615C16.588 7.02155 16.5128 7.37267 16.6047 7.77396C16.6465 7.99132 16.7218 8.16688 16.7636 8.16688C16.8054 8.16688 16.8388 8.2254 16.8388 8.30064C16.8388 8.50129 17.1147 9.25369 17.1899 9.25369C17.2317 9.25369 17.2568 9.34566 17.2568 9.4627C17.2568 9.57974 17.2986 9.6717 17.3404 9.6717C17.3906 9.6717 17.424 9.72186 17.424 9.78874C17.424 9.85562 17.4742 9.9643 17.5327 10.0228C17.5829 10.0813 17.6999 10.2736 17.7751 10.4408C17.8587 10.6164 17.9591 10.7585 18.0009 10.7585C18.0427 10.7585 18.1012 10.8505 18.1263 10.9675C18.1597 11.0846 18.2182 11.1765 18.26 11.1765C18.3102 11.1765 18.3436 11.2183 18.3436 11.2601C18.3436 11.3103 18.4356 11.444 18.5526 11.5611C18.6697 11.6781 18.7616 11.8119 18.7616 11.862C18.7616 11.9122 18.8954 12.071 19.0542 12.2299C19.2131 12.3804 19.3468 12.5225 19.3468 12.5476C19.3468 12.6145 20.2414 13.5173 20.3082 13.5173C20.3333 13.5173 20.442 13.6093 20.5507 13.7263C20.6594 13.8434 20.8098 13.9353 20.8851 13.9353C20.9603 13.9353 21.0188 13.9939 21.0188 14.0607C21.0188 14.1276 21.0774 14.1862 21.1443 14.1862C21.2111 14.1862 21.2697 14.2196 21.2697 14.2698C21.2697 14.3116 21.3449 14.3534 21.4369 14.3534C21.5288 14.3534 21.6041 14.4119 21.6041 14.4788C21.6041 14.5456 21.6793 14.6042 21.7713 14.6042C21.8716 14.6042 22.0304 14.6961 22.1391 14.8132C22.2478 14.9302 22.4233 15.0222 22.5487 15.0222C22.6574 15.0222 22.7745 15.0807 22.8079 15.1476C22.833 15.2144 22.9082 15.273 22.9835 15.273C23.0504 15.273 23.1089 15.3064 23.1089 15.3566C23.1089 15.3984 23.2176 15.4402 23.3513 15.4402C23.4851 15.4402 23.6356 15.4987 23.6941 15.5656C23.7526 15.6324 23.9114 15.691 24.0452 15.691C24.179 15.691 24.2709 15.7244 24.2458 15.7662C24.2208 15.808 24.3796 15.8582 24.5886 15.8833C24.806 15.9083 24.9983 15.9669 25.015 16.017C25.0317 16.0672 25.2156 16.109 25.4163 16.109C25.6169 16.109 25.7841 16.1424 25.7841 16.1842C25.7841 16.226 26.2523 16.2845 26.8291 16.318C27.406 16.3514 27.8741 16.4099 27.8741 16.4517C27.8741 16.4935 27.9326 16.527 27.9995 16.527C28.0664 16.527 28.1249 16.4935 28.1249 16.4517C28.1249 16.4099 28.6349 16.3514 29.2535 16.318C29.8722 16.2845 30.3822 16.226 30.3822 16.1842C30.3822 16.1424 30.5494 16.109 30.75 16.109C30.9506 16.109 31.1346 16.0672 31.1513 16.017C31.168 15.9752 31.3352 15.9083 31.5358 15.8833C31.7281 15.8582 31.887 15.7996 31.887 15.7662C31.887 15.7244 32.004 15.691 32.1378 15.691C32.2883 15.691 32.4137 15.6408 32.4387 15.5656C32.4722 15.4987 32.5809 15.4402 32.6895 15.4402C32.7982 15.4402 32.8902 15.3984 32.8902 15.3566C32.8902 15.3064 32.9821 15.273 33.0992 15.273C33.2162 15.273 33.3333 15.2144 33.3583 15.1476C33.3918 15.0807 33.4837 15.0222 33.5673 15.0222C33.6509 15.0222 33.7262 14.9804 33.7262 14.9386C33.7262 14.8884 33.8014 14.855 33.8934 14.855C33.9854 14.855 34.0857 14.7964 34.1108 14.7296C34.1442 14.6627 34.2278 14.6042 34.3114 14.6042C34.395 14.6042 34.4786 14.5456 34.512 14.4788C34.5371 14.4119 34.6124 14.3534 34.6876 14.3534C34.7545 14.3534 34.813 14.3116 34.813 14.2698C34.813 14.2196 34.8715 14.1862 34.9384 14.1862C35.0136 14.1862 35.0889 14.1276 35.114 14.0607C35.1474 13.9939 35.2059 13.9353 35.2477 13.9353C35.2979 13.9353 35.4233 13.8434 35.532 13.7263C35.6406 13.6093 35.7493 13.5173 35.7744 13.5173C35.8413 13.5173 37.0033 12.3302 37.2374 12.0209C37.3545 11.862 37.4966 11.6865 37.5551 11.628C37.6053 11.5694 37.6554 11.4858 37.6554 11.444C37.6554 11.3939 37.6889 11.3437 37.7223 11.327C37.831 11.2852 38.458 10.2402 38.7422 9.6299C38.8927 9.30386 39.085 8.89421 39.1686 8.71865C39.2606 8.53473 39.3274 8.32572 39.3274 8.24212C39.3274 8.16688 39.386 7.99132 39.4529 7.86592C39.6117 7.5566 39.6117 7.28907 39.4529 7.13023C39.386 7.06335 39.3274 6.97139 39.3274 6.92123C39.3274 6.87107 39.177 6.82927 38.9847 6.82927C38.6921 6.82927 38.5918 6.87943 38.2992 7.18875C38.1069 7.38939 37.8477 7.682 37.7307 7.84084C37.4548 8.20032 37.0953 8.58489 37.0284 8.58489C37.0033 8.58489 36.8027 8.76881 36.577 9.00289C36.3513 9.22861 36.1339 9.4209 36.0837 9.4209C36.0419 9.4209 35.9834 9.47942 35.95 9.5463C35.9249 9.61318 35.8497 9.6717 35.7744 9.6717C35.7075 9.6717 35.649 9.70514 35.649 9.7553C35.649 9.7971 35.5905 9.8389 35.5236 9.8389C35.4484 9.8389 35.3731 9.89742 35.348 9.9643C35.3146 10.0312 35.2394 10.0897 35.1725 10.0897C35.0972 10.0897 34.9551 10.1817 34.8464 10.2987C34.7378 10.4157 34.5789 10.5077 34.4786 10.5077C34.3866 10.5077 34.3114 10.5411 34.3114 10.5913C34.3114 10.6331 34.2194 10.6916 34.1024 10.7251C33.9854 10.7502 33.8934 10.8087 33.8934 10.8505C33.8934 10.8923 33.8014 10.9257 33.6844 10.9257C33.5506 10.9257 33.4754 10.9759 33.4754 11.0511C33.4754 11.1347 33.3918 11.1765 33.2246 11.1765C33.0908 11.1765 32.9738 11.21 32.9738 11.2601C32.9738 11.3019 32.9069 11.3437 32.8233 11.3437C32.7397 11.3437 32.5976 11.4022 32.5056 11.4691C32.422 11.536 32.2214 11.5945 32.0793 11.5945C31.9288 11.5945 31.8034 11.628 31.8034 11.6698C31.8034 11.7116 31.6445 11.7617 31.4522 11.7952C31.26 11.8286 31.076 11.8871 31.051 11.9289C31.0259 11.9624 30.7416 12.0125 30.4072 12.0292C30.0812 12.046 29.8304 12.0794 29.8471 12.1045C29.8973 12.1964 29.1449 12.2633 28.0915 12.2633C26.9796 12.2633 26.1854 12.1881 26.2439 12.0961C26.2606 12.0627 26.0265 12.0292 25.7256 12.0209C25.4163 12.0125 25.1404 11.9707 25.1153 11.9373C25.0902 11.8955 24.8979 11.837 24.6806 11.8035C24.4548 11.7701 24.2793 11.7116 24.2793 11.6698C24.2793 11.628 24.179 11.5945 24.0536 11.5945C23.9198 11.5945 23.7442 11.536 23.6606 11.4691C23.5687 11.4022 23.4098 11.3437 23.3012 11.3437C23.1925 11.3437 23.1089 11.3019 23.1089 11.2601C23.1089 11.21 23.0169 11.1765 22.9082 11.1765C22.7995 11.1765 22.6658 11.118 22.6073 11.0511C22.5487 10.9842 22.4317 10.9257 22.3481 10.9257C22.2561 10.9257 22.1893 10.8923 22.1893 10.8505C22.1893 10.8087 22.0973 10.7502 21.9803 10.7251C21.8632 10.6916 21.7713 10.6331 21.7713 10.5913C21.7713 10.5411 21.7127 10.5077 21.6375 10.5077C21.5706 10.5077 21.4536 10.4575 21.3951 10.399C21.1025 10.1482 21.0188 10.0897 20.9018 10.0897C20.8433 10.0897 20.768 10.0312 20.7346 9.9643C20.7095 9.89742 20.6343 9.8389 20.559 9.8389C20.4922 9.8389 20.4336 9.7971 20.4336 9.7553C20.4336 9.70514 20.3751 9.6717 20.3082 9.6717C20.2414 9.6717 20.1828 9.61318 20.1828 9.5463C20.1828 9.47942 20.141 9.4209 20.0909 9.4209C20.0407 9.4209 19.9488 9.37074 19.8902 9.31222C19.6144 9.07813 19.514 9.00289 19.4472 9.00289C19.4054 9.00289 19.3218 8.91093 19.2632 8.79389C19.2047 8.67685 19.1044 8.58489 19.0375 8.58489C18.979 8.58489 18.9288 8.55145 18.9288 8.50129C18.9288 8.45949 18.7031 8.19196 18.4272 7.90772C18.1513 7.63184 17.9256 7.36431 17.9256 7.32251C17.9256 7.28071 17.8838 7.24727 17.8253 7.24727C17.7751 7.24727 17.7584 7.22219 17.7835 7.19711C17.8169 7.16367 17.7584 7.07171 17.6581 6.98811C17.4825 6.82927 16.9726 6.77911 16.7803 6.89615Z" fill="black"/>
<path d="M15.2926 12.9152C15.0502 13.0824 15 13.7094 15 16.6773C15 19.712 15.0251 19.9712 15.3093 20.2721C15.3846 20.3474 18.0431 20.3724 28.0334 20.3724C39.8629 20.3724 40.6738 20.3641 40.8327 20.2303C40.9915 20.0882 40.9999 19.9879 40.9999 16.6355C40.9999 12.7062 41.025 12.8484 40.3478 12.8484C40.1054 12.8484 39.98 12.8902 39.9465 12.9738C39.9131 13.0406 39.8462 13.0992 39.796 13.0992C39.7375 13.0992 39.6372 13.1911 39.5787 13.3082C39.5201 13.4252 39.4365 13.5172 39.3947 13.5172C39.3529 13.5172 39.2359 13.6091 39.1272 13.7262C39.0185 13.8432 38.9099 13.9352 38.8764 13.9352C38.8513 13.9352 38.6758 14.0856 38.4919 14.2696C38.3079 14.4535 38.1324 14.604 38.1073 14.604C38.0822 14.604 38.007 14.6541 37.9484 14.7043C37.6976 14.93 37.5806 15.022 37.5304 15.022C37.5054 15.022 37.3967 15.1139 37.288 15.231C37.1793 15.348 37.0288 15.44 36.9536 15.44C36.8784 15.44 36.8198 15.4734 36.8198 15.5236C36.8198 15.5654 36.6526 15.6824 36.4436 15.7744C36.2346 15.8663 36.0674 15.9834 36.0674 16.0252C36.0674 16.0753 35.9755 16.1088 35.8584 16.1088C35.7414 16.1088 35.6494 16.1422 35.6494 16.184C35.6494 16.2258 35.5575 16.2843 35.4404 16.3094C35.3234 16.3429 35.2314 16.4014 35.2314 16.4432C35.2314 16.4934 35.1395 16.5268 35.0308 16.5268C34.9221 16.5268 34.8134 16.5853 34.78 16.6522C34.7549 16.7191 34.6379 16.7776 34.5208 16.7776C34.3954 16.7776 34.3202 16.811 34.3536 16.8612C34.3871 16.9114 34.3034 16.9448 34.1613 16.9448C34.0276 16.9448 33.8687 17.0033 33.8102 17.0702C33.7517 17.1371 33.6012 17.1956 33.4674 17.1956C33.3337 17.1956 33.225 17.229 33.225 17.2792C33.225 17.321 33.1247 17.3628 32.9993 17.3628C32.8655 17.3628 32.69 17.4213 32.6064 17.4882C32.5144 17.5551 32.2803 17.6136 32.0797 17.6136C31.879 17.6136 31.7202 17.647 31.7202 17.6888C31.7202 17.7306 31.4694 17.7808 31.1601 17.7975C30.834 17.8142 30.5916 17.8728 30.5665 17.9313C30.5247 18.0651 25.5588 18.0734 25.517 17.9396C25.5003 17.8895 25.2328 17.831 24.9234 17.8059C24.6141 17.7808 24.3633 17.7223 24.3633 17.6888C24.3633 17.647 24.1877 17.6136 23.9787 17.6136C23.753 17.6136 23.5524 17.5634 23.4771 17.4882C23.4019 17.4213 23.2347 17.3628 23.1009 17.3628C22.9672 17.3628 22.8585 17.321 22.8585 17.2792C22.8585 17.229 22.7414 17.1956 22.6077 17.1956C22.4572 17.1956 22.3318 17.1454 22.3067 17.0702C22.2733 16.995 22.1479 16.9448 22.0141 16.9448C21.8804 16.9448 21.7717 16.903 21.7717 16.8612C21.7717 16.811 21.6964 16.7776 21.6128 16.7776C21.5209 16.7776 21.3955 16.7191 21.3202 16.6522C21.2533 16.5853 21.1279 16.5268 21.036 16.5268C20.944 16.5268 20.8521 16.4683 20.8186 16.4014C20.7935 16.3345 20.6932 16.276 20.6013 16.276C20.5093 16.276 20.4341 16.2342 20.4341 16.1924C20.4341 16.1422 20.3421 16.1088 20.2334 16.1088C20.1247 16.1088 20.0161 16.0503 19.9826 15.9834C19.9575 15.9165 19.8572 15.858 19.7653 15.858C19.6649 15.858 19.6148 15.8162 19.6399 15.7744C19.6649 15.7242 19.6148 15.6908 19.5228 15.6908C19.4225 15.6908 19.3472 15.6323 19.3472 15.5654C19.3472 15.4901 19.272 15.44 19.1717 15.44C19.0714 15.44 18.9042 15.348 18.7955 15.231C18.6868 15.1139 18.5614 15.022 18.5112 15.022C18.4611 15.022 18.3357 14.93 18.227 14.813C18.1183 14.6959 17.9929 14.604 17.9344 14.604C17.8842 14.604 17.8424 14.5455 17.8424 14.4786C17.8424 14.4117 17.7923 14.3532 17.7254 14.3532C17.6585 14.3532 17.2656 14.0104 16.8476 13.6008C16.1286 12.8902 16.0617 12.8484 15.7273 12.8484C15.535 12.8484 15.3344 12.8818 15.2926 12.9152ZM28.3511 18.1737C28.1839 18.1905 27.9163 18.1905 27.7659 18.1737C27.6237 18.157 27.7659 18.1403 28.0835 18.1403C28.4096 18.1403 28.5266 18.157 28.3511 18.1737Z" fill="black"/>
</svg>
